<svg xmlns="http://www.w3.org/2000/svg" viewBox="0 0 452 334"><path d="m75 103 1 3h4v7h4v4h4v6h4v5h4v5h4v5h4v6c5.59.3 10.54-.2 16.04-1.3 9.93-1.93 19.91-3.53 29.9-5.14l5.76-.93c2.85-.46 5.7-.92 8.54-1.38 5.07-.81 10.14-1.64 15.21-2.49 14.47-2.4 28.97-4.2 43.55-5.76v-15l5-1v2h4v2l7 1 1 3 8 1v2h4v3h4v4c1.77.15 1.77.15 3.57.3 9.6.85 19.11 2.01 28.62 3.64.94.16 1.88.31 2.85.48 5.17.91 10.04 2.13 14.98 3.9 1.98.68 3.95 1.2 5.98 1.68v2h4v2h4v2h4v6h-4v3h-4v4h4v2h4v7h-4v2h-4v2h-4v2c-3.98 1.33-7.85 1.07-12 1v2h-8v2c-15 2.44-29.9 4.34-45.06 5.25-.67.04-1.34.08-2.03.12-12.27.73-23.91.83-36.1-.81-9.6-1.22-19.13-2.14-28.81-2.56v2c-2.56.51-5.12 1-7.69 1.5-.72.14-1.44.29-2.18.43-3.77.73-7.27 1.25-11.13 1.07.54-3.8 2.2-5.47 5-8-4.09-1.45-8.03-2.47-12.3-3.18-1.82-.31-1.82-.31-3.68-.62-1.29-.21-2.57-.42-3.9-.64-.65-.11-1.31-.21-1.98-.33-12.67-2.09-25.38-3.78-38.14-5.23v6h-4v5h-4v6h-4v4h-4v6h-4v5h-4v6h-4l-1 3c.27-9.92 1.34-19.47 3.06-29.25 2.86-16.93 2.56-32.1-.56-48.97-1.63-8.92-2.27-17.72-2.5-26.78Z" fill="#405A83"/><path d="M260.2553711 144.6196289c2.43.34 4.86.65 7.3.95 8.91 1.16 8.91 1.16 13.44 3.43l-2 15h-30c3 5 4.57 6.7 9.82 8.69 7.65 1.09 15.54-.04 23.18-.69.39 1.66.72 3.32 1 5-1.65 1.65-3.8 1.64-6.06 2.06-.92.18-1.84.36-2.78.54-1.07.2-1.07.2-2.16.4v1c-23.23 2-23.23 2-32.81 2.63-1.14.07-2.28.14-3.45.22-9.15.37-17.85-.07-26.92-1.29-9.61-1.22-19.14-2.14-28.82-2.56v2c-2.56.51-5.12 1.01-7.68 1.5-.72.14-1.45.29-2.19.43-3.76.73-7.27 1.25-11.13 1.07.55-3.8 2.21-5.47 5-8-4.12-1.47-8.09-2.47-12.41-3.18-1.22-.21-2.45-.41-3.72-.62-1.29-.21-2.59-.42-3.93-.64l-4.02-.66c-10.95-1.79-21.92-3.41-32.92-4.9v-7c1.04-.11 1.04-.11 2.09-.23 5.53-.61 11.06-1.25 16.58-1.93 1.58-.19 1.58-.19 3.19-.39 6.27-.9 12.32-2.37 18.41-4.09 19.33-5.4 38.84-8.03 58.73-10.36.98-.11 1.96-.23 2.97-.35 17.23-1.88 34.19-.41 51.29 1.97Z" fill="#B1B5BA"/><path d="m75 103 1 3h4v7h4v4h4v6h4v5h4v5h4v5h4v6h3c3.08 6.15 1.27 16.32 0 23h-3v6h-4v5h-4v6h-4v4h-4v6h-4v5h-4v6h-4l-1 3c.27-9.92 1.34-19.47 3.06-29.25 2.86-16.93 2.56-32.1-.56-48.97-1.63-8.92-2.27-17.72-2.5-26.78Z" fill="#2C364D"/><path d="M260.2553711 144.6196289c2.43.34 4.86.65 7.3.95 8.91 1.16 8.91 1.16 13.44 3.43l-2 15h-1v-10c-21.32-3.33-40.96-1.65-62.26 1.47-4.48.64-8.97 1.19-13.46 1.74-4.4.54-8.79 1.13-13.17 1.75-54.87 7.66-54.87 7.66-64.11 3.04-2.87-.23-5.74-.42-8.62-.56-.8-.05-1.6-.09-2.43-.13-1.98-.11-3.96-.21-5.95-.31v4l4 1h-5v-6c1.04-.11 1.04-.11 2.09-.23 5.53-.61 11.06-1.25 16.58-1.93 1.58-.19 1.58-.19 3.19-.39 6.27-.9 12.32-2.37 18.41-4.09 19.33-5.4 38.84-8.03 58.73-10.36.98-.11 1.96-.23 2.97-.35 17.23-1.88 34.19-.41 51.29 1.97Z" fill="#9099A5"/><path d="m324 150-4 1v3h-4v4h4v2h4v7h-4v2h-4v2h-4v2c-3.98 1.33-7.85 1.07-12 1v2c-4.11 0-6.74-.07-10.09-2.53-3.37-3.48-5.35-6.22-5.47-11.16.3-3.39.67-6.42 2.56-9.31 2.31-1 2.31-1 5-1 .72.47 1.44.95 2.19 1.44 4.14 2.3 8.16 1.97 12.81 1.56 2.95-.72 2.95-.72 4.38-2.44 3.95-3.8 7.48-3.76 12.62-2.56Z" fill="#8C95A1"/><path d="m225 112 7 1v2l7 1 1 3 8 1v2h4v3h2v3h-29v-16Z" fill="#212C44"/><path d="M216 144c-1 3-1 3-2.78 4.14-2.29.89-4.29 1.32-6.72 1.64-.88.12-1.76.24-2.66.36-1.41.18-1.41.18-2.84.36-.97.13-1.94.25-2.94.38-6.6.85-13.2 1.62-19.81 2.31-.78.08-1.57.17-2.37.25-5.64.56-11.22.65-16.88.56l1-2c2.71-.76 5.38-1.41 8.12-2 1.51-.33 3.01-.67 4.51-1 .74-.16 1.48-.33 2.24-.5 3.07-.72 6.09-1.63 9.13-2.5 10.63-2.35 21.18-2.21 32-2Z" fill="#ADB2B8"/><path d="M249 164h29l3 8c-20.04 3.74-20.04 3.74-29.94-3-.68-.66-1.36-1.32-2.06-2v-3Z" fill="#5F6F84"/><path d="M308 139h4v2h4v2h4v2h4v5c-.8-.08-1.61-.16-2.44-.25-4.14.29-6.92 1.57-10.61 3.37-1.95.88-1.95.88-3.95.88l1-4-1 1c-3.72.29-4.78.15-8-2-.31-3-.31-3 0-6 2-2 2-2 5.62-2.12 1.68.06 1.68.06 3.38.12v-2Z" fill="#3E5880"/><path d="M166 175c7.7.8 15.34 1.88 23 3v1c-4.45.5-4.45.5-9 1v2c-6.76 2.08-12.96 2.21-20 2 1.27-1.46 2.54-2.93 3.81-4.39 1.4-1.72 1.4-1.72 2.19-4.61Z" fill="#677382"/><path d="M304 140.75c3 .25 3 .25 5 2.25.25 3 .25 3 0 6-2 2-2 2-4.44 2.25C302 151 302 151 299 149c-.31-3-.31-3 0-6 2-2 2-2 5-2.25Z" fill="#1D2A44"/><path d="M146 139c-7.2 4.8-15.22 5.38-23.64 5.71-3.81.08-3.81.08-7.36 1.29-2.67.13-5.32.04-8 0l1-2c1.81-.28 3.63-.53 5.46-.72 2.89-.32 5.74-.78 8.61-1.25 1.08-.18 2.16-.36 3.28-.54 2.24-.37 4.48-.74 6.71-1.12 1.62-.26 1.62-.26 3.26-.53.97-.16 1.94-.32 2.94-.49 2.62-.33 5.11-.41 7.74-.35Z" fill="#9AA7BC"/><path d="m172 135-1 4c-4.22.2-7.17-.2-11-2 3.9-2.6 7.47-2.15 12-2Z" fill="#7588A4"/><path d="m282 174 3 1-1 4c-3.31 1-6.3 1.1-9.75 1.06-.98-.01-1.97-.02-2.98-.02-.75-.02-1.5-.03-2.27-.04v-1l13-2v-3Z" fill="#81868E"/><path d="m75 103 1 3h4v3h-2v10h-1v-9h-2v-7Z" fill="#656D7C"/><path d="M242 119c2.97.5 2.97.5 6 1v2h4l-1 3v-2l-7 1v-2h-2v-3Z" fill="#545D6F"/><path d="M314 141h2v2h4v2l4 1h-7v-2l-3-1v-2Z" fill="#586F92"/></svg>