<svg xmlns="http://www.w3.org/2000/svg" viewBox="0 0 447 307"><path d="M160.25732422 113.92480469c23.84-.7 47.72 2.9 71.32 5.86.83.1 1.65.2 2.51.31 4.57.58 9.1 1.27 13.64 2.04 10.38 1.49 20.88 1.25 31.34 1.24 1.11 0 2.22.01 3.37.01 16.73.03 33.1-.87 49.64-3.4.72-.1 1.44-.2 2.18-.31 1.9-.27 3.8-.57 5.7-.88 3.04.21 3.04.21 5.46 2.68.52.83 1.04 1.67 1.58 2.53l-2 1 2 3-2 1 2 3-2 1 2 3-2 1 2 3-2 1 1 2-2 1 2 3-2 1c.33.59.66 1.19 1 1.81 1 2.19 1 2.19 1 5.19l-2 1 2 3-2 1 2 3c-2.47 2.47-3.47 2.34-6.9 2.59-.97.08-1.94.16-2.95.24-1.02.08-2.03.15-3.08.23-2.01.15-4.02.31-6.03.47-.9.07-1.79.13-2.71.2-2.48.2-2.48.2-5.33 1.27-29.45 4.03-59.63 2.92-88.87-1.94-42.87-7.05-85.58-6.03-128.76-2.52-4.13.33-8.22.63-12.37.46-1-1-1-1-1.12-2.76 0-.76.01-1.52.01-2.31v-2.6c0-.94.01-1.87.02-2.84v-2.89c0-3.05.02-6.11.03-9.17.01-2.06.01-4.13.01-6.2.01-5.08.03-10.16.05-15.23 4.6-1.75 8.66-2.35 13.56-2.6.71-.04 1.42-.08 2.14-.12 2.25-.12 4.49-.24 6.74-.35 2.24-.11 4.48-.23 6.72-.35 2.04-.11 4.08-.22 6.11-.32 3.62-.26 7.15-.74 10.73-1.26 1.79-.14 3.58-.25 5.37-.32 1.47-.06 1.47-.06 2.97-.13 1.02-.04 2.04-.08 3.1-.12 1.07-.04 2.15-.08 3.25-.12 3.86-.14 7.71-.26 11.57-.39Z" fill="#D07562"/><path d="M163 136.6875c.99 0 1.99.01 3.01.01 14.9.06 29.79.33 44.55 2.55 1.89.26 3.78.53 5.66.79 3.66.51 7.31 1.04 10.97 1.59 30.8 4.62 61.55 7.15 92.43 1.76 4.13-.67 8.28-1.12 12.44-1.58.74-.08 1.47-.16 2.22-.25 3.59-.39 7.11-.65 10.72-.56l1 2-2 1c.99 1.49.99 1.49 2 3l-2 1c.33.6.66 1.2 1 1.81 1 2.19 1 2.19 1 5.19l-2 1c.99 1.49.99 1.49 2 3l-2 1c.99 1.49.99 1.49 2 3-2.47 2.48-3.48 2.34-6.9 2.6-.97.08-1.95.16-2.95.24-1.02.07-2.04.15-3.09.23-2.01.15-4.02.31-6.02.47-.9.06-1.79.13-2.71.2-2.48.2-2.48.2-5.33 1.26-28.2 3.86-57.58 3.27-85.61-1.39-1.08-.18-2.16-.36-3.27-.54-.97-.17-1.95-.33-2.96-.5-24.15-3.92-48.04-5.02-72.47-4.82-2.07.01-4.13.02-6.2.03-19.84.07-39.67.39-59.49 1.22v-21c24.68-2.45 49.18-4.41 74-4.31Z" fill="#B83B27"/><path d="M149.06640625 120.9317627c29-.64 56.87-.25 85.44 4.95 8.39 1.51 16.83 2.35 25.32 3.09 7.17.69 13.04 1.56 18.17 7.03-3.41.03-6.83.05-10.25.06-1.45.01-1.45.01-2.93.03-.93 0-1.87 0-2.83.01-.86 0-1.72.01-2.6.01-2.29-.11-4.18-.54-6.39-1.11-1.68-.19-3.37-.34-5.07-.47-.98-.07-1.96-.15-2.97-.23-2.03-.16-4.06-.31-6.1-.46-4.63-.38-9.14-.83-13.68-1.81-6.54-1.4-13.15-1.96-19.8-2.59-1-.1-1-.1-2.02-.2-29.04-2.81-58.03-3.21-87.07.09-9.08.97-18.16.84-27.29.67v-6c17.64-3.21 36.28-2.6 54.18-2.95 1.96-.03 3.93-.08 5.89-.12Z" fill="#C2452A"/><path d="M160.25732422 113.92480469c20.59-.61 41.16 2.14 61.56 4.64.91.11 1.82.22 2.77.34 2.62.32 5.25.65 7.87.97.79.1 1.58.2 2.39.3 3.75.48 7.46 1.02 11.15 1.83v1c-2.46.02-4.91.04-7.37.06-.7.01-1.4.01-2.12.02-5.28.03-5.28.03-7.51-1.08v2l-5.37.06c-1 .01-2 .02-3.03.03-2.6-.09-2.6-.09-4.6-1.09v-2c-1.28-.17-2.55-.33-3.87-.5-.72-.1-1.44-.19-2.18-.29-1.95-.25-1.95-.25-3.95-.21v-2c-.75.32-1.5.65-2.28.99-5.13 1.39-9.96 1.23-15.26 1.17-1.11-.01-2.23-.02-3.38-.02-3.57-.02-7.14-.05-10.7-.08-3.55-.03-7.09-.05-10.64-.07-2.2-.02-4.4-.03-6.6-.06-6.22-.04-12.31.26-18.5.83-2.99.27-5.95.36-8.95.37h-3.13c-1.03 0-2.06-.01-3.12-.01-1.6.01-1.6.01-3.23.01h-3.09c-.91 0-1.82 0-2.76-.01-2.36-.12-2.36-.12-5.36-1.12-1.55-.09-3.11-.11-4.67-.1-.89 0-1.78 0-2.7.01-.93.01-1.86.01-2.81.02-1.42.01-1.42.01-2.85.02-2.33.01-4.65.02-6.97.05v-1c4.16-.96 8.21-1.27 12.46-1.5.71-.05 1.42-.09 2.15-.13 2.26-.13 4.51-.25 6.77-.37 2.25-.13 4.49-.25 6.74-.38 2.05-.12 4.09-.23 6.14-.34 3.62-.28 7.15-.76 10.74-1.28 1.79-.14 3.58-.25 5.37-.32 1.47-.06 1.47-.06 2.97-.13 1.02-.04 2.04-.08 3.1-.12 1.07-.04 2.15-.08 3.25-.12 3.86-.14 7.71-.26 11.57-.39Z" fill="#D98F80"/><path d="M336 121h5v2l4-2c.99 1.48.99 1.48 2 3l-2 1c.99 1.48.99 1.48 2 3l-2 1v2c-1.28.13-2.55.27-3.87.4l-5.01.54c-.84.08-1.68.17-2.55.26-1.2.13-1.2.13-2.44.26-.74.08-1.48.16-2.25.24-1.96.22-1.96.22-3.88 1.3-32.65 4.83-32.65 4.83-41.38.12C281 132 281 132 280 130c1.18-.04 2.35-.07 3.57-.11 17.29-.66 34.41-2.78 51.43-5.89l1-3Z" fill="#C2462C"/><path d="m344 120-1 3h-2v-2c-3.54.35-3.54.35-6.2 2.44-2.73 2.36-5.9 2.62-9.36 3.18-.67.13-1.33.25-2.02.37-10.2 1.79-20.2 2.14-30.54 2.07-1.87 0-1.87 0-3.77-.01-3.04-.01-6.07-.03-9.11-.05v-2l-3 1c-2.26-.12-2.26-.12-4.69-.44-.81-.1-1.61-.2-2.45-.31-.61-.08-1.23-.16-1.86-.25v2c-2.1-.11-4.21-.24-6.31-.38-1.17-.06-2.35-.13-3.55-.21C255 128 255 128 252 126v-2l-3-1c.95.01.95.01 1.92.03 29.71.39 59.02.71 88.45-3.78C342 119 342 119 344 120Z" fill="#D17663"/><path d="m249 123 55 1v1c-4.41.83-8.67 1.18-13.15 1.32-.66.02-1.31.04-1.99.06l-6.24.18c-1.41.05-2.83.09-4.25.13-3.46.11-6.91.21-10.37.31v2c-2.1-.11-4.21-.24-6.31-.38-1.17-.06-2.35-.13-3.55-.21C255 128 255 128 252 126v-2l-3-1Z" fill="#E4AEA2"/><path d="m344 120-1 3h-2v-2c-3.58.4-3.58.4-6.37 2.47-3.75 3.52-10.33 3.49-15.25 3.65-.79-.04-1.57-.08-2.38-.12l1-3h-12v-1c5.09-.6 10.18-1.18 15.27-1.76 1.73-.2 3.47-.4 5.2-.61 2.48-.29 4.97-.57 7.46-.85.78-.1 1.55-.19 2.35-.28 5.49-.61 5.49-.61 7.72.5Z" fill="#DB9587"/><path d="M203.5625 117.9375c1.21.03 1.21.03 2.44.06v2c1.09-.2 2.18-.41 3.31-.62 3.69-.38 3.69-.38 6.69 1.62v2l2 1c-1.9-.14-3.79-.29-5.69-.44-1.06-.08-2.11-.16-3.2-.24-3.11-.32-3.11-.32-5.52-.82-3.45-.66-6.9-.86-10.41-1.06-1.03-.06-1.03-.06-2.09-.13-1.7-.11-3.4-.21-5.09-.31v-1c1-.06 2-.12 3.02-.18 1.3-.08 2.59-.17 3.92-.26 1.28-.08 2.57-.16 3.9-.24 3.27-.33 3.62-1.3 6.72-1.38Z" fill="#CF705C"/><path d="M336 121h5v2l4-2 2 3c-.99.5-.99.5-2 1 .99 1.48.99 1.48 2 3h-3l-1-2-20 1c3.04-2.02 4.19-2.32 7.69-2.62.81-.08 1.61-.15 2.45-.23.61-.05 1.23-.1 1.86-.15l1-3Z" fill="#CB715E"/><path d="M119 117c-5.99 3.99-13.47 3.13-20.44 3.06-.92 0-1.84-.01-2.79-.01-2.26-.01-4.51-.03-6.77-.05v-1c4.23-.98 8.43-1.32 12.75-1.56.71-.04 1.41-.09 2.14-.13 5.05-.29 10.06-.4 15.11-.31Z" fill="#E9BEB5"/><path d="M228 165c8.3-.2 15.95-.26 24 2v1c-8.16.34-15.95-.7-24-2v-1Z" fill="#BFADAB"/><path d="M207 162c2.6-.08 5.21-.14 7.81-.19.74-.02 1.48-.05 2.24-.07 5.5-.08 5.5-.08 7.96 1.77.49.74.49.74.99 1.49-1.28-.14-2.56-.29-3.88-.44-5.03-.56-10.08-1.07-15.12-1.56v-1Z" fill="#B99895"/><path d="M204 117c6.93.5 6.93.5 14 1v1c-5.94.5-5.94.5-12 1v-2l-2-1Z" fill="#E9C0B7"/><path d="m249 123 9 1-1 2h-5v-2l-3-1Z" fill="#DFA194"/><path d="m344 120-1 3h-2v-2h-8v-1c1.46-.19 2.92-.38 4.38-.56.81-.11 1.62-.21 2.46-.32C342 119 342 119 344 120Z" fill="#E5B6AC"/></svg>