<svg xmlns="http://www.w3.org/2000/svg" viewBox="0 0 511 451"><path d="M271.93945313 146.45898438c7.34 1.3 14.76 2.19 22.15 3.15 1.14.15 2.27.3 3.43.46 1.52.2 1.52.2 3.06.4 2.42.53 2.42.53 4.42 2.53 2.77.83 5.56 1.47 8.37 2.12 2.75.92 3.73 1.78 5.63 3.88 1.98.72 3.99 1.38 6 2 2.34.98 4.68 1.98 7 3 1.16.5 2.31.99 3.5 1.5 1.16.5 2.31.99 3.5 1.5 1.22.48 2.43.95 3.69 1.44 3.27 1.54 4.8 3.05 7.31 5.56.95.29 1.9.58 2.88.88 3.57 1.28 5.04 2.83 7.43 5.68 1.72 1.66 1.72 1.66 4.57 2.36 3.58 1.24 5.35 2.77 8 5.46.78.77 1.56 1.54 2.36 2.33 1.76 2.29 1.76 2.29 1.76 6.29 1.42 2.23 1.42 2.23 3 4-.99.5-.99.5-2 1l1 2-4 3 1 2c-2.82 3.14-5.12 4.47-9 6l-2 3c-1.64.72-3.31 1.38-5 2-2.97 1.84-2.97 1.84-5 4h-3v2c-3.95 2.33-7.72 4.34-12 6l-3 2c-2.78 1.07-5.59 2.03-8.41 3-2.76.96-2.76.96-5.59 3-2.26.63-2.26.63-4.69 1.13-.81.16-1.61.33-2.45.5-.61.13-1.23.25-1.86.37v2c-.76.12-1.53.25-2.31.38-2.89.5-2.89.5-5.69 2.62-5.67 2.39-11.57 2.75-17.62 3.38-7.87.86-15.54 1.96-23.25 3.68-20.22 4.4-41.51 4.35-62.13 4.94-.72.02-1.44.05-2.18.07-3.95.12-7.87.09-11.82-.07-1.22-.04-2.44-.09-3.69-.13-17.53-1.36-32.4-9.12-44.31-21.87-1.28-1.23-1.28-1.23-2.59-2.49-9.45-9.83-12.35-22.33-12.78-35.63.35-11.02 3.23-19.8 9.37-28.88.47-.83.95-1.65 1.43-2.51 8.53-13.56 24.34-21.98 39.57-25.49 30.32-4.75 65.95-1.3 95.94 4.46Z" fill="#BF693A"/><path d="M271.93945313 146.45898438c7.34 1.3 14.76 2.19 22.15 3.15 1.14.15 2.27.3 3.43.46 1.52.2 1.52.2 3.06.4 2.42.53 2.42.53 4.42 2.53 2.77.83 5.56 1.47 8.37 2.12 2.75.92 3.73 1.78 5.63 3.88 1.98.72 3.99 1.38 6 2 2.34.98 4.68 1.98 7 3 1.16.5 2.31.99 3.5 1.5 1.16.5 2.31.99 3.5 1.5 1.22.48 2.43.95 3.69 1.44 3.27 1.54 4.8 3.05 7.31 5.56.95.29 1.9.58 2.88.88 3.57 1.28 5.04 2.83 7.43 5.68 1.72 1.66 1.72 1.66 4.57 2.36 3.58 1.24 5.35 2.77 8 5.46.78.77 1.56 1.54 2.36 2.33 1.76 2.29 1.76 2.29 1.76 6.29 1.42 2.23 1.42 2.23 3 4-.99.5-.99.5-2 1l1 2-4 3 1 2c-2.82 3.14-5.12 4.47-9 6l-2 3c-1.64.72-3.31 1.38-5 2-2.97 1.84-2.97 1.84-5 4h-3v2c-3.95 2.33-7.72 4.34-12 6l-3 2c-2.78 1.07-5.59 2.03-8.41 3-2.76.96-2.76.96-5.59 3-2.26.63-2.26.63-4.69 1.13-.81.16-1.61.33-2.45.5-.61.13-1.23.25-1.86.37v2c-.76.12-1.53.25-2.31.38-2.89.5-2.89.5-5.69 2.62-5.67 2.39-11.57 2.75-17.62 3.38-7.87.86-15.54 1.96-23.25 3.68-20.22 4.4-41.51 4.35-62.13 4.94-.72.02-1.44.05-2.18.07-3.95.12-7.87.09-11.82-.07-1.22-.04-2.44-.09-3.69-.13-17.53-1.36-32.4-9.12-44.31-21.87-1.28-1.23-1.28-1.23-2.59-2.49-9.45-9.83-12.35-22.33-12.78-35.63.35-11.02 3.23-19.8 9.37-28.88.47-.83.95-1.65 1.43-2.51 8.53-13.56 24.34-21.98 39.57-25.49 30.32-4.75 65.95-1.3 95.94 4.46Zm-120.75 21.42c-5.91 8.43-11.29 17.5-10.19 28.12 1.56 3.03 3.6 5.63 5.69 8.31 1.2 1.6 2.39 3.19 3.59 4.79.62.81 1.24 1.62 1.87 2.46 2.91 3.85 5.72 7.77 8.54 11.69 1.07 1.49 2.14 2.97 3.22 4.45 2.03 2.82 4.05 5.64 6.06 8.47.46.65.92 1.3 1.4 1.97.85 1.2 1.71 2.41 2.56 3.62 4.1 5.78 6.65 6.97 13.61 8.3 11.4 1.86 23.04.93 34.52.44 1.24-.05 2.48-.09 3.76-.14 19.07-.75 37.5-2.38 56.18-6.36 1.8-.36 3.6-.73 5.41-1.08.8-.17 1.6-.33 2.42-.49 2.76-.55 5.53-1.06 8.3-1.55.93-.17 1.86-.34 2.82-.51.67-.12 1.35-.24 2.05-.37v-2c.53-.17 1.07-.34 1.62-.51 5.9-1.92 11.64-4.13 17.38-6.49v-2c1.26-.18 2.52-.37 3.81-.56 6.27-1.39 10.95-4.87 16.19-8.44 2.02-1.28 4.04-2.55 6.06-3.81 2.6-1.63 4.77-3.02 6.94-5.19 0-4.48-2.44-7.16-5.07-10.52-1.87-2.4-3.65-4.85-5.41-7.33-.86-1.2-1.72-2.39-2.59-3.58-2.18-3-4.2-5.98-5.99-9.23-6.58-11.41-16.38-14.98-28.41-19.39-2.05-.77-4.05-1.66-6.03-2.58-4.85-1.9-9.74-2.7-14.87-3.56-.99-.17-1.98-.35-3-.53-5.97-1.02-11.58-1.46-17.63-1.28v-2c-16.83-1.8-33.64-3.25-50.56-3.79-1.6-.06-3.2-.11-4.8-.18-22.76-.89-43.4 3.22-59.45 20.85Z" fill="#C98A62"/><path d="M182 149c2.92 2.92 5.14 5.39 7.5 8.69.7.97 1.39 1.94 2.11 2.94 3.22 4.53 6.42 9.08 9.62 13.62 5.31 7.53 10.71 15 16.12 22.47 2.78 3.84 5.56 7.68 8.34 11.53.54.75 1.08 1.5 1.64 2.27 2.87 3.98 5.73 7.96 8.58 11.95 1.6 2.25 3.21 4.5 4.81 6.74.91 1.27 1.81 2.54 2.71 3.81 1.47 2.08 2.96 4.16 4.45 6.23.45.64.9 1.29 1.37 1.95 2.26 3.13 4.02 5.52 7.75 6.8-2 .35-4 .68-6 1-1.28.22-2.56.44-3.88.66-10.6 1.24-10.6 1.24-14.93-2.03-3.56-3.76-6.26-8.09-8.92-12.52-1.77-2.93-3.73-5.69-5.71-8.49-.71-1.03-1.42-2.07-2.15-3.14-6.43-9.34-13.13-18.5-19.97-27.54-4.07-5.39-7.96-10.89-11.83-16.42-4-5.7-8.11-11.32-12.31-16.87-3.3-4.43-3.3-4.43-3.3-6.65l-2-1 16-6Z" fill="#BF693A"/><path d="M192.703125 147.65234375c7.22-.54 7.22-.54 10.34 2.03 2.47 3.2 3.96 5.2 3.96 9.32h2c1.32 1.47 1.32 1.47 2.83 3.56.57.77 1.13 1.54 1.71 2.33.91 1.26.91 1.26 1.83 2.55.63.85 1.25 1.71 1.9 2.6 5.52 7.62 10.95 15.31 16.36 23.01 3.75 5.34 7.56 10.64 11.37 15.95.49.69.99 1.38 1.5 2.09 1.62 2.27 3.25 4.52 4.87 6.78.54.75 1.08 1.51 1.64 2.28 2.79 3.86 5.61 7.69 8.48 11.48.84 1.1.84 1.1 1.69 2.23 1.07 1.4 2.14 2.79 3.21 4.19 3.61 4.73 3.61 4.73 3.61 6.95-2.68.78-5.29 1.42-8 2-.72.19-1.44.39-2.19.59-2.71.43-4.22.36-6.81-.59-3.39-3.29-5.98-7.05-8.6-10.95-1.98-2.9-4.06-5.71-6.13-8.54-5.34-7.31-10.55-14.71-15.75-22.12-4.17-5.92-8.41-11.79-12.66-17.65-4.24-5.85-8.39-11.75-12.53-17.67-4.01-5.69-8.23-11.18-12.57-16.63-1.76-2.44-1.76-2.44-1.76-4.44 3.22-.58 6.45-.93 9.7-1.35Z" fill="#A64109"/><path d="M195 147c18.81.5 18.81.5 38 1v1h-12c6.15 8.78 12.33 17.52 18.8 26.07 2.79 3.72 5.49 7.51 8.19 11.3 3.48 4.89 6.99 9.76 10.51 14.63 3.87 5.35 7.73 10.7 11.56 16.06.39.55.78 1.09 1.19 1.66 2.33 3.27 4.64 6.55 6.93 9.85.54.78 1.08 1.56 1.64 2.36 1.06 1.52 2.11 3.04 3.16 4.56.48.69.96 1.38 1.45 2.09.43.61.85 1.22 1.29 1.85 1.38 1.85 1.38 1.85 4.28 3.57l-20 2c-1.42-2-2.85-4-4.31-6.06-3.69-5.18-7.42-10.32-11.19-15.44-3.91-5.31-7.77-10.65-11.59-16.02-4-5.62-8.04-11.2-12.08-16.79-3.84-5.3-7.64-10.63-11.42-15.97-2.94-4.13-6.03-8.12-9.23-12.05C209 161 209 161 209 159h-2c-.98-1.73-1.95-3.45-2.93-5.18-.96-1.64-2.01-3.23-3.07-4.82-3.07-.73-3.07-.73-6-1v-1Z" fill="#BF693A"/><path d="M221 149c15.06-2.07 15.06-2.07 19.71 1.2 3.03 3.24 5.15 7.06 7.26 10.96 1.48 2.65 3.27 5.04 5.09 7.46.97 1.34.97 1.34 1.96 2.69 2.05 2.79 4.14 5.55 6.23 8.31 4.12 5.48 8.08 11.06 12.02 16.67 3.73 5.31 7.5 10.58 11.29 15.83.54.75 1.07 1.49 1.62 2.26 2.67 3.69 5.37 7.36 8.12 10.98.78 1.03.78 1.03 1.57 2.09.98 1.29 1.97 2.59 2.97 3.87 1.13 1.5 2.16 3.09 3.16 4.68-1 3-1 3-2.89 3.95-.78.24-1.56.49-2.36.74-.77.25-1.54.5-2.33.76-.8.18-1.6.36-2.42.55-.8.19-1.6.38-2.42.57-4.44-.98-6.15-4.82-8.58-8.45-1.16-1.66-2.31-3.32-3.47-4.99-.59-.85-1.17-1.71-1.78-2.59-2.68-3.89-5.47-7.71-8.25-11.54-1.08-1.49-2.15-2.98-3.23-4.47-.8-1.11-.8-1.11-1.62-2.25-1.69-2.34-3.39-4.68-5.08-7.03-5.84-8.09-11.69-16.18-17.57-24.25-.62-.85-1.24-1.7-1.88-2.58-.95-1.32-.95-1.32-1.93-2.67-.97-1.34-.97-1.34-1.96-2.7-1.71-2.34-3.44-4.68-5.18-7.01-.5-.68-1.01-1.36-1.53-2.06-1-1.34-2.01-2.69-3.02-4.03-3.5-4.73-3.5-4.73-3.5-6.95Z" fill="#A64109"/><path d="m239 149 27 2v1l-5 1c.33.45.65.9.99 1.37.69.96.69.96 1.4 1.93.78 1.08.78 1.08 1.57 2.18 1.17 1.62 2.34 3.24 3.5 4.85 2.96 4.1 5.91 8.19 8.88 12.28 5.24 7.24 10.46 14.5 15.6 21.83 7.04 10.02 14.13 20.09 21.74 29.68C316 229 316 229 316 231l6-1c-1 2-1 2-3.51 3-1.57.5-1.57.5-3.18 1-1.03.33-2.07.66-3.13 1-1.58.5-1.58.5-3.18 1-2 .66-4 1.33-6 2v2l-4-1 2-1c-1.3-2.72-2.72-5.16-4.47-7.62-.48-.68-.97-1.36-1.46-2.06-.52-.73-1.04-1.45-1.57-2.2-.54-.75-1.08-1.51-1.63-2.29-1.62-2.28-3.24-4.55-4.87-6.83-.44-.62-.89-1.25-1.35-1.89-1.62-2.27-3.24-4.53-4.86-6.8-2.26-3.15-4.5-6.32-6.73-9.5-5.44-7.78-11-15.41-16.83-22.9-3.22-4.2-6.23-8.54-9.23-12.91-.81-1.16-1.62-2.32-2.43-3.47-.84-1.2-1.67-2.4-2.51-3.59-.4-.58-.8-1.15-1.22-1.74-2.84-4.09-2.84-4.09-2.84-5.2Z" fill="#BF693A"/><path d="M168 156c1.28 1.34 1.28 1.34 2.57 3.23.72 1.04.72 1.04 1.45 2.1.51.76 1.02 1.52 1.54 2.29 1.09 1.58 2.18 3.16 3.26 4.74.54.79 1.08 1.58 1.64 2.39 2.1 3.07 4.25 6.1 6.42 9.13.39.55.79 1.1 1.2 1.68 4.12 5.75 8.33 11.43 12.53 17.13 8.41 11.39 16.69 22.88 24.89 34.43.48.68.96 1.35 1.46 2.05 3.18 4.51 6.16 9.12 9.04 13.83-14.62 1.81-14.62 1.81-19.68-2.04-1.89-2.59-3.57-5.22-5.15-8.01-2.22-3.7-4.86-7.11-7.42-10.57-1.12-1.56-2.24-3.11-3.36-4.67-3.29-4.57-6.59-9.14-9.89-13.71-1.08-1.5-2.17-3-3.25-4.5-.54-.74-1.07-1.49-1.63-2.25-9.2-12.75-18.41-25.5-27.62-38.25.93-1.13 1.87-2.25 2.81-3.38.52-.62 1.05-1.25 1.58-1.89 2.48-2.66 3.93-3.73 7.61-3.73Zm92-4c2.4.11 4.79.24 7.19.38 1.01.04 1.01.04 2.04.09 3.97.23 7.31.5 10.77 2.53 1.73 2.06 3.21 4.02 4.69 6.25l2.64 3.84c.45.65.89 1.31 1.35 1.98 2.02 2.95 4.11 5.84 6.2 8.74 2.68 3.75 5.35 7.51 8 11.29 5.97 8.52 12.06 16.92 18.33 25.22.45.59.9 1.19 1.36 1.81 1.03 1.34 2.07 2.68 3.11 4.01.55.7 1.1 1.41 1.67 2.14.51.64 1.01 1.28 1.54 1.94C330 224 330 224 330 227c-1.58.68-3.16 1.34-4.75 2-1.32.56-1.32.56-2.67 1.12-2.58.88-2.58.88-6.58.88-1.98-2.4-3.67-4.72-5.38-7.31-1.06-1.57-2.13-3.14-3.21-4.71-.55-.82-1.11-1.64-1.69-2.49-2.81-4.07-5.77-8.02-8.72-11.99-4.93-6.65-9.77-13.36-14.52-20.14-4.27-6.09-8.63-12.12-13.03-18.12-3.36-4.63-6.49-9.35-9.45-14.24Zm-115 27c3.42 1.14 4 2.25 5.85 5.19 1.24 1.95 2.57 3.82 3.93 5.7.5.7 1.01 1.4 1.53 2.12.81 1.11.81 1.11 1.63 2.24 1.16 1.61 2.33 3.22 3.49 4.83.89 1.22.89 1.22 1.8 2.48 3.3 4.55 6.59 9.11 9.88 13.67 2.79 3.86 5.58 7.73 8.39 11.59.57.79 1.15 1.59 1.74 2.4 1.09 1.51 2.18 3.01 3.27 4.5C197 248.2 197 248.2 197 250c-2.04-.12-4.08-.24-6.12-.38-1.14-.06-2.28-.13-3.45-.21-4.98-.6-8.23-1.16-11.78-4.85-.75-1.03-1.5-2.06-2.27-3.12-.42-.57-.84-1.14-1.27-1.72-1.39-1.9-2.75-3.81-4.11-5.72-.48-.68-.97-1.35-1.46-2.05-3.05-4.27-6.06-8.56-9.07-12.86-2.28-3.25-4.59-6.48-6.91-9.71-.76-1.07-1.52-2.13-2.31-3.23-1.19-1.67-2.39-3.34-3.63-4.98-.68-.92-.68-.92-1.37-1.86-.42-.55-.84-1.1-1.27-1.67-1.77-2.96-1.44-5.3-.98-8.64 2.23-8.23 2.23-8.23 4-10Zm158-19c3.04.92 6.01 1.95 9 3 1.22.37 2.44.74 3.7 1.12 11.97 4.06 17.39 11.32 23.98 21.8 1.64 2.59 3.41 5.09 5.2 7.58.51.75 1.02 1.49 1.55 2.26 1.16 1.66 2.36 3.3 3.58 4.92.66.89 1.31 1.78 1.99 2.7.6.79 1.2 1.58 1.81 2.39 1.19 2.23 1.19 2.23 1.08 4.34-1.07 2.28-2.16 3.25-4.2 4.7-.6.44-1.19.88-1.8 1.33-2.46 1.12-3.38.8-5.89-.14-1.53-1.56-1.53-1.56-3-3.59-.55-.75-1.1-1.51-1.67-2.29-.87-1.23-.87-1.23-1.77-2.5-.92-1.27-.92-1.27-1.86-2.57-4.8-6.69-9.45-13.49-14.06-20.31-3.99-5.88-8.2-11.52-12.62-17.08-1.87-2.47-3.48-4.97-5.02-7.66Z" fill="#A64109"/><path d="M140 193c2.01 2.65 3.93 5.33 5.79 8.09 5.66 8.38 11.4 16.6 17.64 24.55 5.12 6.6 9.8 13.52 14.57 20.36-.99.5-.99.5-2 1-14.85-5.48-25.79-15.03-32.51-29.36-3.33-8.13-3.83-15.93-3.49-24.64Z" fill="#BF693A"/><path d="M329 171c6.83 2.03 12.16 5.72 18.06 9.62 1.08.69 2.15 1.38 3.26 2.09 5.93 3.91 10.98 7.51 13.68 14.29.11 4.54-2.56 8.3-5 12-2.14 1.21-2.14 1.21-4 2-.24-.52-.48-1.04-.73-1.57-.34-.7-.67-1.4-1.02-2.12-.32-.68-.65-1.37-.98-2.07-1.51-2.66-3.34-4.87-5.27-7.24-1.6-2.2-3.18-4.41-4.75-6.62-2.53-3.58-5.07-7.15-7.68-10.67-.72-.98-1.45-1.95-2.19-2.96-.66-.87-1.31-1.74-1.98-2.64C329 173 329 173 329 171Z" fill="#BF693B"/><path d="M312 156c4.75.75 4.75.75 7 3 1.98.71 3.98 1.39 6 2l-2 2v-2l-7 1v-4l-4-2Z" fill="#DCB296"/></svg>