<svg xmlns="http://www.w3.org/2000/svg" viewBox="0 0 250 238"><path d="M172 44v2c.99.83 1.98 1.65 3 2.5.99.83 1.98 1.65 3 2.5v2c1.14.62 1.14.62 2.31 1.25 3.33 2.17 4.14 4.14 5.69 7.75 1.21 2.56 1.98 3.98 4 6v3l2 2c2.18 3.4 2 6.04 2 10l2 2c.16 2.46.16 2.46.06 5.38-.1 3.46.05 6.28.94 9.62-.32 1.67-.66 3.33-1 5 0 1.4.02 2.79.06 4.19C196 113 196 113 194 115v7l-2 2c-1.61 2.83-1.61 2.83-2 6l-2 2-1 2c-1 2-1 2-3 4v3c-1.75 1.44-1.75 1.44-4 3-1.35 1.31-2.69 2.65-4 4-4.21 4.34-8.42 7.33-13.75 10.19-.98.53-1.97 1.06-2.98 1.6-1.13.6-1.13.6-2.27 1.21v1c-1.13.29-2.27.58-3.44.88-1.17.37-2.35.74-3.56 1.12l-1 2c-11.42 2.92-22.34 3.53-34 2-1.07-.13-2.15-.26-3.25-.39C97.03 165.05 83.53 156.29 74 145c-.81-.91-1.61-1.82-2.44-2.75-10.9-13.21-16.61-30.04-15.37-47.13.26-1.7.53-3.41.81-5.12.06-.95.11-1.9.17-2.88C58.62 70.09 69.59 55.08 82 44c2.86-2.38 5.73-4.23 9-6 .99-.59 1.98-1.19 3-1.8 27.42-15.34 52.59-6.34 78 7.8Z" fill="#D07873"/><path d="M142 96.625c1.01-.01 2.02-.02 3.06-.02 4.4.59 7.01 2.52 10.19 5.52 2.39 3.93 3.33 7.27 2.75 11.88-2.35 4.76-5.95 9.12-11 11-5.11.56-9.36.37-14-2-3.5-3.73-5.76-7.59-6.62-12.63.93-5.06 2.61-8.89 6.89-12.05 3.14-1.52 5.26-1.73 8.73-1.7ZM152 35c4.74 1.44 8.99 3.37 13.38 5.62.96.49.96.49 1.94.99 1.56.79 3.12 1.59 4.68 2.39v2l2 2c-2.78 3.2-5.05 3.85-9.22 4.17-.75 0-1.5.01-2.28.02-.75.01-1.51.03-2.28.04-3.42-.36-5.68-1.86-8.47-3.79-2.31-3.22-2.15-5.54-2.09-9.42C150 37 150 37 152 35Z" fill="#CB908D"/><path d="M84.0625 77.4375c2.94.56 2.94.56 5.31 2.12 2.21 3.32 2.05 5.53 1.63 9.44-2 3-2 3-5.44 3.75-3.56.25-3.56.25-6.56-.75-2.04-2.11-2.91-3.55-3.5-6.44.93-4.8 3.84-7.25 8.56-8.12Z" fill="#CB8F8B"/><path d="m87 40 2 1c-.44.43-.88.87-1.33 1.31-2 1.98-3.99 3.96-5.98 5.94-.69.68-1.38 1.36-2.09 2.07-.67.66-1.34 1.32-2.03 2.01-.61.61-1.22 1.21-1.85 1.84-1.79 1.82-1.79 1.82-3.32 4.06-.46.58-.92 1.17-1.4 1.77h-2c1.64-3.99 4.41-6.89 7.31-10 .48-.52.95-1.04 1.44-1.58C80.63 45.3 83.6 42.57 87 40Z" fill="#E0A6A3"/><path d="M122 166c3.32.03 6.62-.07 9.93-.16C135 166 135 166 138 168c-5.3.94-10.09.99-15.44.56-.73-.05-1.46-.1-2.21-.16-1.79-.12-3.57-.26-5.35-.4v-2c4.75-1.12 4.75-1.12 7 0Z" fill="#BF908E"/><path d="m58 108 1 3h3l-1 11c-2.68-2.68-2.39-4.39-2.62-8.12-.08-1.1-.15-2.2-.23-3.33-.05-.84-.1-1.68-.15-2.55Z" fill="#E2AFAB"/></svg>