<svg xmlns="http://www.w3.org/2000/svg" viewBox="0 0 419 353"><path d="M239.36328125 65.796875c14.29-.75 30 3.89 40.94 13.16 13.96 12.8 13.96 12.8 17.7 20.04.47.91.95 1.82 1.43 2.75.52 1.08 1.04 2.15 1.57 3.25.34.69.69 1.37 1.04 2.07 2.6 5.4 3.6 9.99 3.96 15.93.15 1.59.15 1.59.31 3.21.53 5.81.88 11.07-.31 16.79h-2l1 7h-2l1 3h-2l1 3h-2l1 3-4 2 1 3h-2v2h-2l1 3h-2v2c-.99.5-.99.5-2 1l1 2c-.75.23-1.49.46-2.25.69-3.33 1.59-4.57 3.37-6.75 6.31-1.65 1.69-3.31 3.36-5 5 .47.5.94 1 1.42 1.51 5.72 6.23 5.72 6.23 7.26 10.18 1.15 3.36 1.15 3.36 3.38 5.88 4.1 5.16 4.15 10.13 3.94 16.43h-2v6h-2v3h-2c-.13.62-.25 1.24-.38 1.88-.62 2.12-.62 2.12-2.62 4.12h-3v2c-6.75 4-6.75 4-9 4v2l-5 1v2c-2.71 3.21-5.1 4.6-9 6l-3 2h-2v2h-3v2l-5 1v2c-6.19 3-12.39 2.2-19 1-3.03-1.37-4.58-2.64-7-5v-2c-.59-.22-1.18-.44-1.78-.66-2.93-1.76-4.04-3.79-5.79-6.71-2.01-3.34-4.03-6.55-6.43-9.63-4.93.85-8.83 2.22-13 5-5.57 2.43-11 3.4-17.03 3.79-1.68.12-3.35.27-5.01.5-5.59.78-10.38.57-15.9-.6-.81-.17-1.62-.34-2.45-.52-10.77-2.57-23.08-7.9-29.61-17.17-.79-.78-1.57-1.56-2.38-2.37-5.55-5.55-9.71-10.84-12.87-18.06-.35-.79-.69-1.57-1.04-2.37-6.18-14.88-6.43-32.09-.71-47.2 4.08-9.28 8.22-17.92 16-24.68.66-.59 1.32-1.17 2-1.77 2-1.55 2-1.55 4.18-2.57 2.17-.9 2.17-.9 2.82-3.98 1.46-1.26 1.46-1.26 3.31-2.48l2.01-1.34c.7-.45 1.4-.9 2.11-1.36.7-.47 1.39-.93 2.11-1.41 5.18-3.41 5.18-3.41 7.46-3.41v-2c1.96-1.38 3.97-2.71 6-4 .72-.57 1.44-1.15 2.18-1.75 1.82-1.25 1.82-1.25 4.82-1.25v-2c1.39-.99 2.8-1.97 4.25-2.88 1.72-1.1 3.38-2.25 5.04-3.44.54-.39 1.09-.78 1.66-1.18 1.13-.8 2.25-1.6 3.37-2.41 2.82-1.98 5.22-3.59 8.68-4.09v-2c15.42-13.53 34.24-21.47 54.36-23.2Z" fill="#C4986C"/><path d="m115 147 3 1c.04.85.07 1.69.11 2.56.72 12.44 3.51 20.64 12.88 29.27 8.28 6.61 16.72 6.78 27.01 6.17 2.4-.4 4.69-.89 7.04-1.56 2.61-.58 4.29-.93 6.96-.44 1.82 2.16 3.19 4.11 4.62 6.5.88 1.38 1.75 2.76 2.63 4.14.67 1.07.67 1.07 1.36 2.17 2.27 3.57 4.67 7.03 7.08 10.5.46.68.93 1.35 1.41 2.04 3.6 5.24 7.24 10.45 10.9 15.65 1.31 1.87 2.63 3.75 3.94 5.62.58.84 1.17 1.68 1.77 2.54.43.61.85 1.22 1.29 1.84-1.49.5-1.49.5-3 1v2c-1.73.72-3.45 1.43-5.18 2.15-2.09.92-2.09.92-4.82 2.85-5.57 2.42-11 3.4-17.03 3.79-1.67.12-3.34.26-5 .5-5.59.78-10.39.56-15.91-.6-.81-.17-1.61-.34-2.45-.52-10.77-2.57-23.07-7.9-29.61-17.17l-2.38-2.38c-5.55-5.55-9.71-10.83-12.87-18.06-.34-.78-.69-1.56-1.04-2.37-6.59-15.87-6.15-33.72.27-49.62 1.02-2.19 1.02-2.19 3.02-5.57l3-1 1-3Z" fill="#C08157"/><path d="M278 77c7.33 6.21 15.55 13.36 20 22 .47.91.95 1.81 1.44 2.75.51 1.07 1.03 2.15 1.56 3.25.34.68.69 1.36 1.04 2.07 2.6 5.4 3.6 9.99 3.96 15.93.15 1.59.15 1.59.31 3.21.54 5.8.89 11.07-.31 16.79h-2c.5 3.47.5 3.47 1 7h-2l1 3h-2l1 3h-2l1 3-4 2 1 3h-2v2h-2l1 3h-2v2c-.99.5-.99.5-2 1l1 2c-.74.23-1.49.45-2.25.69-3.31 1.58-4.59 3.38-6.75 6.31-2.12 2.31-2.12 2.31-4 4h-2c-.94-1.33-1.87-2.67-2.75-4.05-1.43-2.24-2.96-4.4-4.5-6.57-2.55-3.64-5.05-7.3-7.5-11-1.03-1.55-2.05-3.09-3.08-4.63-.84-1.25-1.67-2.51-2.5-3.76-1.42-2.15-2.86-4.29-4.29-6.43-.45-.67-.89-1.35-1.35-2.04-2.18-3.22-4.26-5.88-7.31-8.32-2.72-2.2-2.72-2.2-3.6-5.01-.04-.72-.08-1.45-.12-2.19 1.05-.46 1.05-.46 2.12-.94 5.48-3.93 9.34-10.1 10.63-16.76.86-8.04 1.15-15.09-2.75-22.3-.29-.87-.58-1.73-.88-2.62-1.46-3.11-3.68-5-6.12-7.38v-2c-.56-.11-1.13-.23-1.71-.35-2.56-.73-4.64-1.82-6.98-3.09-4.74-2.44-9.07-3.63-14.31-4.56l1-3c19.65-2.9 39.15-3.17 56 9Z" fill="#BE7F54"/><path d="M171.421875 185.625c3.22 1.71 4.29 3.41 6.2 6.5 1.02 1.61 1.02 1.61 2.07 3.25.36.58.73 1.16 1.11 1.76 2.19 3.41 4.52 6.72 6.82 10.05.94 1.37 1.87 2.73 2.81 4.1 1.52 2.21 3.06 4.39 4.64 6.56.83 1.16.83 1.16 1.68 2.34.47.64.94 1.27 1.42 1.92 1.19 2.71.86 4.15-.17 6.9-2 1.54-2 1.54-4.44 2.74-.8.41-1.61.82-2.43 1.24-.71.33-1.41.67-2.13 1.02-.99.49-.99.49-2 1-16.91 1.16-16.91 1.16-23-4-2.23-2.2-4.14-4.49-6-7-.79-1.04-1.57-2.07-2.38-3.13-3.09-5.74-2.35-13-1.18-19.21 2.08-6.59 6.91-11.52 12.18-15.79 2.38-.87 2.38-.87 4.8-.25Z" fill="#653C3E"/><path d="M277 129c5.53 3.98 10.29 8.22 12 15 .92 7.95 1.11 15.28-3.43 22.12-2.53 3.02-5.25 5.74-8.57 7.88h-2v2h-3c-1.31-1.43-1.31-1.43-2.64-3.45-.51-.76-1.02-1.51-1.54-2.29-.54-.83-1.08-1.66-1.63-2.51-1.16-1.74-2.32-3.47-3.48-5.21-.6-.9-1.2-1.81-1.82-2.75-1.91-2.81-3.85-5.59-5.82-8.36-.96-1.35-.96-1.35-1.94-2.72-1.23-1.74-2.48-3.48-3.72-5.21-.57-.79-1.13-1.59-1.71-2.4-.5-.7-.99-1.39-1.51-2.11-1.2-2.01-1.75-3.7-2.19-5.99 5.75-4 5.75-4 8-4v-2c7.92-2.44 17.89-2.41 25 2Z" fill="#633B3D"/><path d="M109 206h3c.53 1.62 1.05 3.25 1.56 4.88.29.9.58 1.8.88 2.74C115 216 115 216 114 218c-.84-1.62-1.67-3.25-2.5-4.88-.46-.9-.93-1.8-1.41-2.74C109 208 109 208 109 206Z" fill="#DDBCA6"/><path d="m116 142 3 3-1 3-3-1-1 4h-2c1.06-3.4 2.01-6.01 4-9Z" fill="#DBB79F"/><path d="M122 226c2.38.19 2.38.19 5 1 1.19 2.38 1.19 2.38 2 5 .99 1.49.99 1.49 2 3-3.82-1.56-6.26-3.96-9-7v-2Z" fill="#E0C5B3"/><path d="m129 129 2 1c-.9 1.16-1.82 2.3-2.75 3.44-.51.64-1.02 1.27-1.55 1.93-1.9 1.82-3.14 2.23-5.7 2.63.96-1.13 1.92-2.25 2.88-3.38.53-.62 1.06-1.25 1.61-1.89 1.12-1.29 2.3-2.52 3.51-3.73Z" fill="#DDC5AC"/><path d="M182 91h3c-.56 1.88-.56 1.88-2 4-3.62 1.25-3.62 1.25-7 2l6-6Z" fill="#E2CEB8"/><path d="m172 98 2 1-5 5-3-1 6-5Z" fill="#E3D0BC"/><path d="m191 85 2 1c-2.31 2.5-2.31 2.5-5 5h-3v-2c1.96-1.39 3.96-2.73 6-4Z" fill="#E3D0BB"/></svg>