<svg xmlns="http://www.w3.org/2000/svg" viewBox="0 0 521 594"><path d="M279 69c1.6.33 3.2.64 4.81.94 3.35.63 6.48 1.43 9.69 2.56 3.93 1.38 7.82 2.21 11.9 2.98 7.4 1.49 14.4 3.7 21.36 6.6 2.71 1.11 5.45 2.04 8.24 2.92l-1 2c.74.23 1.49.45 2.25.69 3.26 1.55 4.68 3.4 6.75 6.31l-1 1c.74.23 1.49.45 2.25.69 3.32 1.58 4.52 3.41 6.75 6.31 1.94 1.76 3.95 3.37 6 5l-1 2 4 2v2l3 1 1 3 3 1c3.94 3.02 7.02 5.99 10 10l-1 1 2 2-1 1 2 2-1 1 2 2-1 1 2 2-1 1 2 2-2 2 2 2-1 1 2 2-1 1 2 2-1 1 2 2-1 1 2 2-2 2 2 2-1 1 2 2-1 1 2 2-1 1 2 2-1 1 2 2-1 1 2 2-1 1 2 2-2 2 2 2-1 1 2 2-2 2 2 2-2 2 2 2-3 3 2 2-3 3 2 2-4 4 2 2-3 3 2 2-4 4 2 2-3 3 2 2-3 3 2 2-4 4 2 2-3 3 2 2-4 4 2 2-6 6 1 3c-2.62 2.77-5.05 5.03-8.25 7.12-3.01 1.65-3.01 1.65-3.75 4.88-1.15.45-2.31.91-3.5 1.38-1.73.8-1.73.8-3.5 1.62-.68 2.4-.68 2.4-1 5-2.42 2.97-3.98 4.75-7.75 5.69-4.56 1.84-6.86 4.99-10.06 8.62-7.57 8.08-14.48 10.74-25.19 12.69-1.08.23-2.15.45-3.26.68-1.68.35-3.36.68-5.05.96-1.72.21-1.72.21-2.69 1.36-1.37.16-2.75.28-4.12.38-4.44.43-7.79 1.83-11.88 3.62-10.38 2.98-20.62 2.77-31 0v-2c-1.29-.12-2.58-.24-3.9-.36-7.7-.86-15.1-2.97-22.57-4.97-1.61-.43-3.22-.84-4.83-1.25-9.96-2.51-17.23-6.11-24.7-13.42-.82-.79-1.64-1.59-2.49-2.41-3.56-3.68-6.7-7.67-9.91-11.65-1.95-2.2-3.66-3.88-5.92-5.69-.88-.74-1.77-1.49-2.68-2.25v-2c-.58-.26-1.16-.52-1.75-.79-2.39-1.29-4.22-2.73-6.25-4.52-.66-.58-1.32-1.15-2-1.74-5.33-5.2-7.12-9.75-8.91-16.83-.25-.96-.51-1.92-.77-2.91-.8-3.06-1.59-6.14-2.38-9.21-.54-2.04-1.07-4.07-1.61-6.11-1.26-4.8-2.48-9.61-3.7-14.43-.54-2.12-1.11-4.23-1.7-6.34-3.58-13.5-.38-25.64 3.26-38.74.41-1.52.82-3.03 1.23-4.54 1-3.64 2.02-7.28 3.04-10.91.49-1.74.96-3.48 1.44-5.22 4.77-17.41 4.77-17.41 12.1-23.71.76-.83 1.53-1.65 2.31-2.5C172 117 172 117 174 117c.23-.58.45-1.16.69-1.75 1.66-2.85 3.7-4.25 6.31-6.25 1.69-1.64 3.35-3.31 5-5 .66-.64 1.32-1.28 2-1.93 4.17-4.07 7.7-8.06 11.06-12.82 5.21-6.51 11.15-7.91 18.94-9.76 3.01-.74 5.93-1.72 8.88-2.68C233.52 74.77 240.02 73 247 73v-2c21.44-5.96 21.44-5.96 32-2Zm-16.81 41.88c-1.02.16-2.04.32-3.08.49-3.17.64-6.07 1.56-9.11 2.63-12.47 4.1-12.47 4.1-17.69 4.62-3.39.04-3.39.04-5.31 2.38-2.62.62-2.62.62-5 1l2 2-29 29 2 2c-1.98 2.47-1.98 2.47-4 5l2 1c-1.98 2.47-1.98 2.47-4 5l2 1-3 4 2 1-3 4 2 1-4 5 2 1-2 3 2 1-3 4 2 1-2 3 2 1c-.5.99-.5.99-1 2l2 1c-.5.99-.5.99-1 2l2 1-2 3 2 1c-.5.99-.5.99-1 2l2 1c-.5.99-.5.99-1 2l2 1c-.5.99-.5.99-1 2l2 1c-.5.99-.5.99-1 2l2 1-2 3 2 1c-.5.99-.5.99-1 2l2 1c-.5.99-.5.99-1 2l4 2-1 3 4 2v2c1.96 1.64 1.96 1.64 4 3l-1 2c3.45 2.1 3.45 2.1 7 4l-1 2c.91.72 1.81 1.44 2.75 2.19 2.83 2.35 4.95 4.93 7.25 7.81 3.89 3.58 7.6 6.98 12.94 7.78.75.12 1.5.24 2.27.36 1.57.24 3.14.48 4.72.72 5.87.94 5.87.94 8.07 3.14 2.33.64 2.33.64 4.94 1.06 2.81.5 5.34 1.03 8.06 1.94 9.73.76 18.59-.81 28-3v-2c1.26-.1 2.52-.21 3.81-.31 14.48-1.75 23.27-7.56 32.58-18.8 1.61-1.89 3.32-3.6 5.11-5.33 1.17-1.18 2.34-2.37 3.5-3.56.6-.61 1.2-1.21 1.82-1.84 5.74-6.47 7.46-13.69 9.57-21.87.62-2.31 1.31-4.6 2.03-6.89.23-.75.46-1.49.7-2.27.45-1.41.9-2.83 1.36-4.25 2.69-8.83 1.29-15.89-1.23-24.57-.27-.96-.55-1.93-.83-2.93-.8-2.8-1.61-5.59-2.42-8.38-.39-1.38-.79-2.77-1.18-4.15-2.29-7.78-4.65-13.32-10.82-18.85h-2c-.26-.59-.53-1.19-.8-1.8-1.24-2.28-2.5-3.67-4.39-5.45-3.27-3.17-6.27-6.49-9.23-9.95-6.17-7.03-13.49-8.08-22.58-8.8v-2c-3.77-.84-7.54-1.67-11.31-2.5-1.07-.24-2.15-.48-3.25-.72-1.03-.23-2.06-.45-3.12-.69-.94-.21-1.89-.42-2.87-.63-3.93-.74-7.35-.23-11.26.42Z" fill="#47363F"/><path d="M106 350c6.16-.2 11.72.49 17.75 1.75.87.18 1.74.36 2.64.54 6.74 1.42 13.17 3.25 19.61 5.71l-1 2 2 2-1 1 2 2-2 2 2 2-2 2 2 2-1 1 2 2-2 2 2 2-2 2 2 2-2 2 2 2-2 2 2 2-2 2 2 2-1 1 2 2v4l2 2-1 1 6 5c-.5.99-.5.99-1 2l2 2-1 1 6 5-1 2 4 4-1 1c.82.78 1.65 1.57 2.5 2.38C170 433 170 433 170 435l4 2v2c.94.18.94.18 1.9.37.82.16 1.63.33 2.48.51.81.16 1.62.32 2.46.49C183 441 183 441 185 443c1.49.5 1.49.5 3 1 3 1 3 1 5 3 1.25.68 2.53 1.32 3.81 1.94 2.3 1.1 4.24 2.1 6.26 3.67 4.55 2.16 8.97 1.74 13.93 1.64 1.06-.01 2.11-.03 3.2-.04 3.27-.05 6.53-.13 9.8-.21 1-.02 2-.04 3.03-.06 2.8-.07 5.61-.15 8.41-.25.83-.02 1.66-.05 2.52-.07 5.53-.25 11.09-.98 16.04-3.62l1-3c1.86-1.36 1.86-1.36 4.31-2.75 1.35-.78 1.35-.78 2.73-1.57 1.46-.83 1.46-.83 2.96-1.68 4.03-2.29 8.04-4.6 12-7 .62-.37 1.24-.75 1.88-1.13 4.38-3.1 6.2-7.56 8.41-12.26 2.01-4.25 4.19-8.4 6.4-12.55.38-.72.76-1.44 1.15-2.18 5.32-10.04 5.32-10.04 7.16-11.88 7.79.15 15.42 1.24 23 3v1c1.21.27 1.21.27 2.45.55 1.6.38 1.6.38 3.24.76 1.05.25 2.11.49 3.2.74 3.09.94 5.43 2.17 8.11 3.95l-4 5 2 2-7 7 2 2c-.43.39-.87.77-1.31 1.17-.56.52-1.12 1.04-1.69 1.58-.56.51-1.11 1.02-1.69 1.55-1.72 1.87-1.72 1.87-1.31 5.7-2 2.25-2 2.25-4 4l2 2-6 6 2 2c-.82.74-1.65 1.49-2.5 2.25-2.95 2.62-2.95 2.62-2.5 6.75-1.28 1.8-1.28 1.8-3.07 3.6-.97.98-.97.98-1.97 1.99-.69.67-1.38 1.34-2.08 2.03-.67.69-1.34 1.37-2.02 2.07-3.79 3.75-6.59 5.94-11.86 7.31l-2.5 2.5c-2.8 2.8-4.8 3.32-8.5 4.5l-2 2c-2 2-2 2-4.81 2.81-3.91 1.46-5.66 3.59-8.46 6.58-2.32 2.16-4.71 2.79-7.73 3.61-.47.5-.94.99-1.42 1.51-1.94 1.83-2.97 1.95-5.6 2.14-1.2.1-1.2.1-2.42.2-.85.05-1.69.1-2.56.15-.83.05-1.66.1-2.52.16-2.7.14-5.4.26-8.1.38-.99.04-1.98.08-3 .13-2.07.09-4.14.17-6.22.26-3.15.13-6.3.27-9.46.41-2.02.08-4.05.17-6.08.26-.93.04-1.86.08-2.82.12-16.99.7-16.99.7-21.49-1.28-.81-.36-1.63-.72-2.47-1.08-5.66-2.7-11.26-5.5-16.84-8.36v-2c-1.16-.33-2.31-.66-3.5-1-12.28-4.11-30.21-11.32-36.5-23-1.09-1.74-2.2-3.46-3.31-5.19-.61-.95-1.21-1.91-1.84-2.89-1.19-1.88-2.38-3.75-3.58-5.62-3.17-4.96-6.28-9.95-9.33-14.99-2.29-3.74-4.63-7.34-7.32-10.81-9.4-12.19-6.79-32.98-7.18-47.78-.07-2.58-.14-5.15-.22-7.73-.05-1.65-.09-3.3-.13-4.95-.03-.76-.05-1.53-.08-2.32-.07-3.2-.03-5.65.99-8.72Z" fill="#483841"/><path d="M289 429c0 3.82-1.15 5.41-3.37 8.42-2.86 2.77-5.75 2.96-9.63 3.58-2.13.37-2.13.37-4 1-1.24 1.9-1.24 1.9-2 4l-1 2h-2v2c-.8.12-1.61.25-2.44.38-.84.2-1.69.41-2.56.62l-1 2c-7.03 2.31-14.21 2.65-21.56 3.12-1.25.09-2.49.17-3.77.26-24.27 1.55-24.27 1.55-28.67-1.38 1.29-.04 2.57-.09 3.9-.14 4.8-.17 9.6-.36 14.4-.55 2.08-.08 4.15-.16 6.22-.23 2.99-.1 5.98-.22 8.98-.35 1.37-.04 1.37-.04 2.77-.09 5.76-.26 11.59-.84 16.73-3.64.5-1.49.5-1.49 1-3 1.86-1.36 1.86-1.36 4.31-2.75.9-.52 1.8-1.04 2.73-1.57.97-.56 1.95-1.11 2.96-1.68 9.48-5.32 9.48-5.32 18-12Z" fill="#D8D6D7"/><path d="M311 262v2l-5 1v2h-2v2c-1.07.14-2.14.29-3.25.44-3.48.44-3.48.44-5.75 1.12-3 .66-5.94.5-9 .44v2c-3.42.23-6.83.43-10.25.62-1.45.1-1.45.1-2.93.2-1.41.08-1.41.08-2.84.16-.85.05-1.71.1-2.6.16-2.61-.15-4.15-.82-6.38-2.14 1.27-.13 2.53-.27 3.84-.4l5.1-.54c.83-.08 1.66-.17 2.52-.26 5.51-.58 11.03-1.18 16.54-1.8v-2c1.28-.28 2.55-.55 3.87-.84 1.67-.37 3.34-.73 5.01-1.1.84-.18 1.68-.36 2.55-.55.8-.18 1.61-.35 2.44-.54.74-.16 1.48-.32 2.25-.49 5.79-1.48 5.79-1.48 5.88-1.48Z" fill="#A39CA0"/><path d="M230 264c6.44.62 12.68 1.64 19 3v1c5.94 1.49 5.94 1.49 12 3v1c-5.15.09-9.92-.15-15-1l-1 2-3-1c-1.89-.22-3.79-.41-5.69-.56-.99-.09-1.99-.17-3.01-.26-1.14-.09-1.14-.09-2.3-.18l-1-7Z" fill="#6B5E65"/><path d="M212 83c-.55.34-1.11.68-1.68 1.02-.72.45-1.45.9-2.2 1.36-.71.44-1.43.88-2.17 1.33-2.07 1.28-2.07 1.28-3.95 3.29l1 1c.04 2 .04 4 0 6-.89.24-1.77.47-2.68.71-4.64 1.8-7.36 4.84-10.86 8.29-2.6 2.11-4.17 2.67-7.46 3 1.1-3.3 1.76-3.84 4.38-5.94 4.8-4.06 8.91-8.62 13.1-13.29 7.63-8.4 7.63-8.4 12.52-6.77Z" fill="#796E74"/><path d="M284.6599121 111.49780273c7.11 1.77 14.01 2.5 21.34 2.5v3h4v3l2 1c-6-1.33-12-2.66-18-4v-2c-1.2-.1-2.39-.2-3.62-.31-4.12-.43-7.99-1.31-12-2.31-7.73-1.75-14.57-1.29-22.38-.38 8.64-5.76 19.29-2.86 28.66-.5Z" fill="#D9D7D8"/><path d="M184 275c1.17.95 2.34 1.91 3.5 2.88.97.8.97.8 1.97 1.61.5.5 1.01 1 1.53 1.51v2c.55.22 1.1.44 1.66.66 3.64 2.09 6.26 5.22 9.1 8.26 4.54 4.73 8.98 7.11 15.43 8.14 3.42.55 4.83.96 7.81 2.94 1.52.46 3.05.86 4.6 1.22.88.21 1.76.42 2.68.64 1.86.43 3.72.86 5.58 1.28.88.21 1.77.42 2.68.64 1.21.28 1.21.28 2.44.57C245 308 245 308 247 310c-7.78-1.3-15.39-2.94-23-5-.63-.16-1.26-.32-1.91-.48-14.99-3.78-24.1-11.78-34.4-23.21-.7-.76-1.4-1.53-2.12-2.32C184 277 184 277 184 275Z" fill="#DFDDDE"/><path d="M329 300c-5.81 2.75-11.61 4.23-17.88 5.62l-5.67 1.29c-.83.19-1.66.37-2.52.57-1.92.35-1.92.35-2.93 1.52-1.41.21-2.83.37-4.25.5-3.3.33-6.51.77-9.75 1.5l2-4h12l1-5c4.75.88 4.75.88 7 2v-2c.95-.13 1.91-.27 2.89-.4 1.25-.18 2.51-.36 3.8-.54 1.86-.26 1.86-.26 3.76-.52 2.14-.33 4.27-.7 6.38-1.17C327 299 327 299 329 300Z" fill="#938B8F"/><path d="M314 395c2.27.11 4.54.24 6.81.38 1.27.06 2.53.13 3.83.21C328 396 328 396 331 398c2.98.81 5.98 1.46 8.99 2.12 3.07.9 5.36 2.12 8.01 3.88l-4 5 2 2-3 2c-1.76-3.09-2-4.23-2-8h-2v-3c-3.16-.79-5.95-1-9.19-.88-1.88-.06-1.88-.06-3.81-.12l-2-3c-2.42-.8-2.42-.8-5.12-1.19-1.37-.24-1.37-.24-2.76-.48-.7-.11-1.4-.22-2.12-.33v-1Z" fill="#80767B"/><path d="M312 121c7.91 3.31 13.84 11.65 19.27 18.07 1.89 2.11 3.91 4 5.98 5.93 3.77 3.74 5.4 6.93 6.75 12 .29.93.57 1.85.87 2.81 2.36 7.9 2.36 7.9 1.13 12.19-.17-.55-.34-1.11-.52-1.68-.78-2.52-1.57-5.05-2.36-7.57-.26-.87-.53-1.75-.81-2.64-.27-.85-.53-1.69-.8-2.56-.36-1.17-.36-1.17-.73-2.35-1.38-3.89-2.7-6.41-5.97-8.95-3.26-2.7-5.96-5.59-8.7-8.82-3.3-3.8-6.75-7.46-10.2-11.13-3.91-4.19-3.91-4.19-3.91-5.3Z" fill="#E4E2E3"/><path d="M314 394v1l-5 1c.06.76.12 1.53.19 2.31-.19 2.69-.19 2.69-1.69 4.5-.5.39-.99.79-1.5 1.19l2 1-1 9h-2l-1-5c-2.67 2.49-4.56 4.63-6 8-1.15-3.44-.93-3.8.55-6.91.35-.74.7-1.48 1.06-2.25.38-.77.75-1.54 1.14-2.34.54-1.16.54-1.16 1.09-2.34 4.63-9.66 4.63-9.66 12.16-9.16Z" fill="#5F5159"/><path d="M329 84c2.97.5 2.97.5 6 1l-1 2c.74.23 1.49.45 2.25.69 3.26 1.55 4.68 3.4 6.75 6.31l-1 1c2.48.99 2.48.99 5 2v1l-8 1-1-3c-2.02-.73-2.02-.73-4-1v-3h-2v-2h-2l-1-6Z" fill="#61535A"/><path d="M346 211c2.19 6.99-1.84 15.67-5 22-2.96 4.39-6.68 8.04-10.54 11.64-2.13 1.99-4.16 4.09-6.21 6.17-1.08 1.07-2.16 2.13-3.25 3.19 0-3 0-3 2.38-5.6 1.06-1.01 2.12-2.02 3.18-3.02 1.11-1.09 2.22-2.19 3.32-3.28.54-.54 1.08-1.07 1.63-1.62 7.29-7.26 10-14.08 12.54-23.88.95-3.6.95-3.6 1.95-5.6Z" fill="#ECEBEB"/><path d="M347 173h2v4l3 1c.8 7.36 1.13 14.6 1 22h-3l-1 2c.17-.82.33-1.65.5-2.5 1.06-7.41.35-12.88-1.84-19.98C347 177 347 177 347 173Z" fill="#6C6066"/><path d="M253 311h32c-1 2-1 2-2.86 2.63-10.03 2.02-19.25 2.01-29.14-.63v-2Z" fill="#ADA7AA"/><path d="M294 114h12v3h4v3l2 1-18-4v-3Z" fill="#A0989C"/><path d="M176 267h7v3h2v2h2l1 6c-1.44-.93-2.88-1.87-4.31-2.81-1.2-.79-1.2-.79-2.43-1.58-2-1.43-3.68-2.74-5.26-4.61v-2Z" fill="#74686F"/><path d="M114 351c5.23-.2 9.85.47 14.88 1.81.69.18 1.39.36 2.11.55 5.08 1.33 10.06 2.87 15.01 4.64-4.3 1.31-7.6.66-12 0l-1-3c-.7-.05-1.4-.1-2.12-.15-5.85-.46-11.24-1.25-16.88-2.85v-1Z" fill="#C3BFC1"/><path d="M204 454c1.18.49 1.18.49 2.38.99 4.6 1.28 8.76 1.23 13.5 1.13.87 0 1.75-.01 2.66-.02 2.15-.03 4.31-.06 6.46-.1-3.52 2.35-5.51 2.38-9.69 2.62-1.18.08-2.36.15-3.57.23-.91.05-1.81.1-2.74.15v2h-3v-2c-.62-.08-1.24-.17-1.88-.25-2.12-.75-2.12-.75-3.37-2.81-.25-.64-.5-1.28-.75-1.94Z" fill="#574850"/><path d="M270.4375 443.25c.52.25 1.03.5 1.56.75-1.37 2-1.37 2-3 4h-2v2c-.8.12-1.61.25-2.44.37-1.26.31-1.26.31-2.56.63l-1 2-4-1 2-1c.23-.6.46-1.2.69-1.81 2.25-3.75 6.26-6.4 10.75-5.94Z" fill="#938A8F"/><path d="M311.0625 393.9375c1.45.03 1.45.03 2.94.06v1l-5 1c.06.77.12 1.53.18 2.32-.18 2.68-.18 2.68-1.56 4.5-1.62 1.18-1.62 1.18-3.62 1.18-.29.64-.58 1.28-.88 1.94-1.12 2.06-1.12 2.06-3.12 3.06 1.52-5.52 4.55-14.93 11.06-15.06Z" fill="#A49DA1"/><path d="M328 246c0 3 0 3-1.44 4.5-.51.5-1.03.99-1.56 1.5l-1 3c-2.18 1.61-2.18 1.61-4.88 3.19-.88.53-1.76 1.06-2.67 1.6C314 261 314 261 311 261c1.17-1.02 2.33-2.04 3.5-3.06.72-.64 1.45-1.27 2.19-1.92 1.53-1.34 3.06-2.67 4.59-4.01.71-.62 1.42-1.24 2.16-1.89.99-.86.99-.86 1.99-1.74.88-.77 1.74-1.55 2.57-2.38Z" fill="#62545C"/><path d="m244 111 12 1-1 2c-2.25.6-2.25.6-5 1.06-3.3.34-3.3.34-6 1.94-1.67.04-3.33.04-5 0l3-2 2-4Z" fill="#9E979B"/><path d="M201 492v3h23v1c-4.08.09-8.17.14-12.25.19-1.16.02-2.32.05-3.51.07-1.12.01-2.23.02-3.38.03-1.54.03-1.54.03-3.11.05-3.11-.38-4.46-1.26-6.75-3.34 2-1 2-1 6-1Z" fill="#60535A"/><path d="M141 463c.91.47 1.81.95 2.75 1.44 2.51 1.21 4.55 2.04 7.25 2.56v2h3l-1 3c-8.87-2.96-8.87-2.96-12-7v-2Z" fill="#90878C"/><path d="M115 423c2.47.99 2.47.99 5 2v4l3 1c.12.72.25 1.44.38 2.19.61 2.77 1.5 5.21 2.62 7.81-2.98-2.79-5.12-5.55-7.19-9.06-.51-.86-1.02-1.72-1.54-2.6C116 426 116 426 115 423Z" fill="#B1ABAF"/><path d="M229.0390625 116.8046875c1.78.03 1.78.03 3.59.07 1.78.03 1.78.03 3.6.05.91.03 1.83.05 2.77.08-2.55 2.55-4.54 2.36-8.02 2.71-2.29.33-4.02 1.06-5.98 2.29l-1-3c2-2 2-2 5.04-2.2Z" fill="#999196"/><path d="M288 307h13l-1 2c-1.89.38-1.89.38-4.25.56-3.31.3-6.5.71-9.75 1.44l2-4Z" fill="#91888D"/><path d="M347 173h2v4l3 1-1 10c-2.52-5.04-4-9.34-4-15Z" fill="#968D92"/><path d="M212 83c-.74.42-.74.42-1.5.85-5.26 3.1-9.37 6.67-13.5 11.15 0-4.36 2.28-6.06 5.12-9.19 3.34-3.22 5.45-4.29 9.88-2.81Z" fill="#E3E1E2"/><path d="m274 482 5 1c-.56 3.27-1.5 4.83-4 7l-3-1h2l-1-3c.44-2.19.44-2.19 1-4Z" fill="#786D73"/><path d="M353 276h2c-1.45 3.37-3.12 5.7-6 8-2.75.25-2.75.25-5 0v-3c1.11-.45 2.23-.91 3.38-1.38 3.58-1.34 3.58-1.34 5.62-3.62Z" fill="#9E979B"/><path d="m181 109 1 3c-.68.62-.68.62-1.38 1.25-1.68 1.81-2.61 3.5-3.62 5.75l-2-1c0-4 0-4 1.31-5.39 1.57-1.2 3.13-2.41 4.69-3.61Z" fill="#989094"/><path d="m216 83-4 1v2c-.93.27-1.86.54-2.81.81-2.95 1.1-4.25 1.81-6.19 4.19l-2-1c1.08-.96 2.16-1.92 3.25-2.88.9-.8.9-.8 1.83-1.61 3.48-2.73 5.62-4.05 9.92-2.51Z" fill="#5E5058"/><path d="M311 460h4c-1.44 3.36-3.12 5.72-6 8-2.25-.25-2.25-.25-4-1 .62-.41 1.24-.82 1.88-1.25 2.19-1.81 3.05-3.16 4.12-5.75Z" fill="#877E83"/><path d="M257 453v2c-5.41 3.07-5.41 3.07-8 2.75-.66-.25-1.32-.5-2-.75-2-.35-4-.68-6-1v-1c.84-.06 1.69-.12 2.55-.18 1.1-.09 2.2-.17 3.33-.26 1.09-.08 2.18-.16 3.3-.24 2.56-.29 4.31-1.32 6.82-1.32Z" fill="#695C63"/><path d="M136 454c2.47.5 2.47.5 5 1 .12 1.13.25 2.27.38 3.44.3 1.76.3 1.76.62 3.56l2 1h-3l-5-9Z" fill="#55464E"/><path d="m162 424 4 2-1 2 4 4c-.99.5-.99.5-2 1-2.12-.94-2.12-.94-4-2v-2h-2l1-5Z" fill="#62545B"/><path d="M284 476h6l-1 4-5 1v-5Z" fill="#72666D"/><path d="M304 465h5c-2.96 2.39-5.94 4.74-9 7l-2-2 2-3h4v-2Z" fill="#584B52"/><path d="M296 416c0 4.34-.1 6.99-3.06 10.31-.96.84-.96.84-1.94 1.69 0-3.17.51-4.38 1.94-7.12.36-.71.72-1.41 1.09-2.14C295 417 295 417 296 416Z" fill="#A49CA0"/><path d="M310 119h7v3h2l-1 4c-5.75-4.75-5.75-4.75-8-7Z" fill="#55464E"/><path d="M248 269c4.82-.19 8.5.24 13 2v1c-4.92.17-8.5.25-13-2v-1Z" fill="#958D91"/><path d="M343 225c1.15 1.73 1.15 1.73 2 4-.9 2.14-.9 2.14-2.38 4.25-.48.71-.96 1.41-1.46 2.14-.38.53-.76 1.06-1.16 1.61l-3-1c.62-.7 1.24-1.4 1.88-2.12 2.16-2.94 3.15-5.39 4.12-8.88Z" fill="#594B53"/><path d="m167 124 3 1c-.42.48-.84.96-1.28 1.46-.55.63-1.09 1.26-1.66 1.92-.54.62-1.09 1.25-1.65 1.89-1.48 1.69-1.48 1.69-2.41 3.73h-2c1.37-4 3.26-6.8 6-10Z" fill="#55464E"/><path d="m223 123 2 1-9 9-1-4c.76-.43 1.53-.87 2.31-1.31 2.27-1.43 3.91-2.72 5.69-4.69Z" fill="#B1ACAE"/><path d="M311 78c4.88-.35 7.77.58 12 3-3.3 1.12-5.05.9-8.25-.44-.71-.28-1.41-.57-2.14-.87-.53-.23-1.06-.45-1.61-.69v-1Z" fill="#BBB6B9"/><path d="M319 254c0 3 0 3-1.31 4.39-1.57 1.2-3.13 2.41-4.69 3.61l-2-1 8-7Z" fill="#DFDEDF"/></svg>