<svg xmlns="http://www.w3.org/2000/svg" viewBox="0 0 283 326"><path d="M160.5625 66.3125c1 .12 2 .24 3.04.36 12.7 1.63 12.7 1.63 17.4 6.33.97.31 1.94.62 2.94.93 3.09 1.08 3.85 1.86 6.06 4.07 1.99.69 3.99 1.36 6 2l2 2c.88.22 1.77.45 2.68.69 4.54 1.79 7.06 4.77 10.32 8.31 1.2 1.2 1.2 1.2 2.44 2.43 3.52 3.53 7.04 7.05 10.56 10.57l-2 2c.82.74 1.65 1.48 2.5 2.25 2.5 2.75 2.5 2.75 2.5 6.75 1.05 1.74 1.05 1.74 2.5 3.25.82.9 1.65 1.81 2.5 2.75-.99.49-.99.49-2 1l6 7c-.99.49-.99.49-2 1l3 4c-.99.49-.99.49-2 1l3 4c-.99.49-.99.49-2 1l3 4c-.99.49-.99.49-2 1l3 4c-.99.49-.99.49-2 1l3 4c-.99.49-.99.49-2 1 .99 1.48.99 1.48 2 3-.99.49-.99.49-2 1 .99 1.48.99 1.48 2 3-.99.49-.99.49-2 1 .99 1.48.99 1.48 2 3-.99.49-.99.49-2 1l1 2c-.99.49-.99.49-2 1 .99 1.48.99 1.48 2 3-.99.49-.99.49-2 1l1 2c-.99.49-.99.49-2 1l1 2c-.99.49-.99.49-2 1 .99 1.48.99 1.48 2 3-.99.49-.99.49-2 1l1 2c-.99.49-.99.49-2 1v4l-2 2 1 2-4 3 1 2-2 1 1 2-2 1c-.17.66-.33 1.32-.5 2-.17.66-.33 1.32-.5 2l-2 1 1 2-2 1 1 2c-.91.72-1.82 1.44-2.75 2.19-2.05 1.69-3.57 3.21-5.25 5.31-2.36 2.95-5.1 5.08-8 7.5-1.36 1.64-2.7 3.31-4 5-2.97 3.6-5.77 4.87-10.1 6.29-2.18.73-2.18.73-4.9 2.71-2 .8-4.03 1.51-6.06 2.22-2.62 1.05-4.75 2.64-7.01 4.3-4.15 2.09-8.23 2.57-12.81 3.17-.94.12-1.88.25-2.84.37-22.64 2.85-41.25-.38-61.28-11.06-1.2-.61-2.4-1.22-3.6-1.82-7.25-3.74-7.25-3.74-8.4-7.18-.58-.29-1.16-.58-1.75-.88-3.04-1.52-4.99-3.61-7.25-6.12v-2h-2v-2c-.64-.27-1.28-.54-1.94-.81-2.06-1.19-2.06-1.19-3.06-4.19h-2c-2.67-4.96-5.3-9.93-7.9-14.91-.86-1.64-1.76-3.25-2.67-4.86-10.46-19.84-9.11-46.24-3.43-67.23 2.05-5.68 4.98-10.8 8-16 .49-1.02.99-2.03 1.5-3.07 3.53-7.21 8.31-12.8 14.5-17.93h2c.26-.59.53-1.18.81-1.79 3.86-7.19 10.4-10.76 17.63-13.9 1.62-.73 3.24-1.47 4.87-2.2 1.18-.52 1.18-.52 2.38-1.06 2.22-1.01 4.38-2.12 6.54-3.25 3.18-1.61 6.02-2.46 9.58-2.93 4.85-.68 9.62-1.52 14.42-2.51 7.53-.99 14.85-.02 22.33.95Zm-42.56 27.69c-2 .66-4 1.33-6 2l-2 2c-.99.29-1.98.58-3 .87-3.53 1.33-3.46 1.94-5 5.13-2.63.75-2.63.75-5 1l1 2c-.91.72-1.82 1.44-2.75 2.19-2.83 2.34-5.01 4.89-7.25 7.81-1.32 1.35-2.65 2.69-4 4l1 1-2 2 1 1-4 4 1 1-4 4 1 1-2 2 1 1-2 2 2 2-2 2 1 1-2 2 2 2-2 2 1 1-2 2 1 1-2 2 2 2-2 2 2 2-2 2 3 3-2 2 3 3-2 2 3 3-2 2 4 4-2 2 6 6-2 2 6 6-2 2c2.69 2.81 5.4 5.59 8.12 8.37.76.8 1.52 1.59 2.31 2.41 3.98 4.05 6.87 6.92 12.57 8.22l2 2c1.99.69 3.99 1.35 6 2 1.62.72 1.62.72 3.27 1.46 16.01 6.92 36.8 6.68 53.07.67 17.44-7.27 32.04-20.31 39.95-37.62 6.82-16.8 8.49-37.96 1.7-55.06-5.8-12.7-13.14-22.62-23.99-31.45-.52-.43-1.04-.86-1.57-1.3-14.95-11.53-54.58-23.55-70.43-7.7Z" fill="#C2B0BE"/><path d="M160.5625 66.3125c1 .12 2 .24 3.04.36 12.7 1.63 12.7 1.63 17.4 6.33.97.31 1.94.62 2.94.93 3.09 1.08 3.85 1.86 6.06 4.07 1.99.69 3.99 1.36 6 2l2 2c.88.22 1.77.45 2.68.69 4.54 1.79 7.06 4.77 10.32 8.31 1.2 1.2 1.2 1.2 2.44 2.43 3.52 3.53 7.04 7.05 10.56 10.57l-2 2c.82.74 1.65 1.48 2.5 2.25 2.5 2.75 2.5 2.75 2.5 6.75 1.05 1.74 1.05 1.74 2.5 3.25.82.9 1.65 1.81 2.5 2.75-.99.49-.99.49-2 1l6 7c-.99.49-.99.49-2 1l3 4c-.99.49-.99.49-2 1l3 4c-.99.49-.99.49-2 1l3 4c-.99.49-.99.49-2 1l3 4c-.99.49-.99.49-2 1l3 4c-.99.49-.99.49-2 1 .99 1.48.99 1.48 2 3-.99.49-.99.49-2 1 .99 1.48.99 1.48 2 3-.99.49-.99.49-2 1 .99 1.48.99 1.48 2 3-.99.49-.99.49-2 1l1 2c-.99.49-.99.49-2 1 .99 1.48.99 1.48 2 3-.99.49-.99.49-2 1l1 2c-.99.49-.99.49-2 1l1 2c-.99.49-.99.49-2 1 .99 1.48.99 1.48 2 3-.99.49-.99.49-2 1l1 2c-.99.49-.99.49-2 1v4l-2 2 1 2-4 3 1 2-2 1 1 2-2 1c-.17.66-.33 1.32-.5 2-.17.66-.33 1.32-.5 2l-2 1 1 2-2 1 1 2c-.91.72-1.82 1.44-2.75 2.19-2.05 1.69-3.57 3.21-5.25 5.31-2.36 2.95-5.1 5.08-8 7.5-1.36 1.64-2.7 3.31-4 5-2.97 3.6-5.77 4.87-10.1 6.29-2.18.73-2.18.73-4.9 2.71-2 .8-4.03 1.51-6.06 2.22-2.62 1.05-4.75 2.64-7.01 4.3-4.15 2.09-8.23 2.57-12.81 3.17-.94.12-1.88.25-2.84.37-22.64 2.85-41.25-.38-61.28-11.06-1.2-.61-2.4-1.22-3.6-1.82-7.25-3.74-7.25-3.74-8.4-7.18-.58-.29-1.16-.58-1.75-.88-3.04-1.52-4.99-3.61-7.25-6.12v-2h-2v-2c-.64-.27-1.28-.54-1.94-.81-2.06-1.19-2.06-1.19-3.06-4.19h-2c-2.67-4.96-5.3-9.93-7.9-14.91-.86-1.64-1.76-3.25-2.67-4.86-10.46-19.84-9.11-46.24-3.43-67.23 2.05-5.68 4.98-10.8 8-16 .49-1.02.99-2.03 1.5-3.07 3.53-7.21 8.31-12.8 14.5-17.93h2c.26-.59.53-1.18.81-1.79 3.86-7.19 10.4-10.76 17.63-13.9 1.62-.73 3.24-1.47 4.87-2.2 1.18-.52 1.18-.52 2.38-1.06 2.22-1.01 4.38-2.12 6.54-3.25 3.18-1.61 6.02-2.46 9.58-2.93 4.85-.68 9.62-1.52 14.42-2.51 7.53-.99 14.85-.02 22.33.95Zm-22.98 4.9c-26.07 2.61-45.49 14.5-62.53 34.2-4.55 5.74-7.37 11.8-10.05 18.59-.68 1.21-1.36 2.43-2.04 3.64-2.76 5.44-3.42 11.25-4.28 17.23-.18 1.12-.36 2.24-.54 3.4-1.03 6.84-1.19 12.9-.14 19.73.09.74.18 1.49.27 2.26 2.89 23.2 13.88 43.82 31.98 58.7 11.94 8.84 25.99 15.17 40.75 17.04 1.54.31 1.54.31 3.12.63 6.96 1.4 12.88 1.35 19.88.37l4.14-.36c17.74-1.8 34.55-9.64 46.86-22.64 1.13-1.05 2.27-2.08 3.41-3.11 8.1-7.45 13.48-14.76 17.74-24.92.59-1.38 1.22-2.74 1.88-4.09 2.77-5.72 3.94-11.09 4.72-17.38.12-.89.25-1.77.38-2.69 2.93-21.97-1.25-42.98-13.13-61.81-2.19-2.82-4.56-5.41-7-8-1.07-1.23-2.13-2.45-3.19-3.68-9.18-10.09-19.15-15.85-31.58-21.32-1.44-.65-2.87-1.34-4.27-2.08-2.05-.97-3.82-1.4-6.05-1.77-.78-.13-1.56-.26-2.36-.4-9.5-1.45-18.35-2.38-27.97-1.54Z" fill="#994687"/><path d="M213 95c3.22 1.41 5.32 3.1 7.75 5.62.92.95.92.95 1.86 1.92.69.72.69.72 1.39 1.46-1.84.63-1.84.63-4 1-3.6-2.92-5.61-5.58-7-10Z" fill="#B67DAA"/><path d="M165 68c5.65-.35 9.03.57 14 3-3.58 1.24-6.34.75-10 0v-2l-4-1Z" fill="#C18CB5"/></svg>