<svg xmlns="http://www.w3.org/2000/svg" viewBox="0 0 324 312"><path d="M240 21v2h4v2h4v2h4v3h4v3h4v2h4v2h4v2h4v4h4v7h4v6h4v7h4v7h4v48h-4v8h-4v6l-4 1v7h-4v7h-4v3h-4v2h-4v3h-4v2h-4v2h-4v2h-4v2h-4v2h-4v5h4v7h4v6h4v7l4 1v6h4v43h-4v8h-4v7l-4 1v6h-4v7h-4v5h-4l-1 3h-3v2h-4v2h-4v2h-4v2h-4v2h-4v3h-4v2c-5.69.34-11.39.64-17.09.88-1.92.08-3.84.17-5.76.26-19.03.91-19.03.91-26.7-4.63C157 287 157 287 157 285c-.72-.1-1.44-.21-2.19-.31-3.09-.76-5.23-1.85-7.81-3.69v-2c-.66-.04-1.32-.08-2-.12-9.94-2.9-14.67-11.62-19.38-20.13-.39-.73-.78-1.46-1.19-2.21-2.44-4.33-5.11-8.51-7.76-12.72-2.83-4.77-2.8-8.81-2.77-14.21 0-.81.01-1.63.01-2.47 0-2.61.01-5.22.03-7.83 0-1.77.01-3.54.01-5.3.01-4.34.03-8.67.05-13.01-1.03.09-2.07.18-3.14.27-26.24 2.06-43.08-.65-63.86-17.27-.64-.48-1.28-.95-1.93-1.44-3.71-2.84-5.71-5.9-7.88-10-.67-1.23-1.35-2.47-2.03-3.7-.34-.63-.69-1.27-1.05-1.92-2.24-3.91-4.74-7.65-7.23-11.41-3.53-5.37-4.04-9.4-4.05-15.71 0-.8 0-1.6-.01-2.43 0-1.7-.01-3.4-.01-5.09 0-2.59-.02-5.18-.03-7.77-.01-1.65-.01-3.3-.01-4.96-.01-.76-.01-1.53-.02-2.33.03-6.81 1.9-11.88 5.15-17.86.56-1.04 1.12-2.08 1.7-3.15.59-1.06 1.17-2.13 1.78-3.23.57-1.07 1.15-2.13 1.74-3.23 8.91-16.35 8.91-16.35 17.38-20.96.96-.53 1.92-1.06 2.91-1.6C56 66 56 66 59 66v-2c2.23-1.13 4.46-2.25 6.69-3.38.62-.31 1.25-.63 1.89-.96 1.8-.9 3.61-1.78 5.42-2.66l2.18-1.09c3.83-1.23 7.51-1.18 11.48-1.14h2.51c1.74 0 3.48.01 5.22.02 2.67.02 5.33.02 7.99.02 1.7.01 3.4.02 5.09.02.8 0 1.59 0 2.41.01 3.54.03 6.71.21 10.12 1.16v3h4v2c1.98.49 1.98.49 4 1v2h4v2h4v3h4v2h4v2c2.35.44 2.35.44 5 0 1.95-2.23 1.95-2.23 3.44-5.25.59-1.09 1.19-2.19 1.8-3.32 1.64-3.19 3.24-6.4 4.82-9.62 4.93-9.9 8.89-15.75 18.94-20.81.81-.41 1.61-.81 2.45-1.23 1.59-.79 3.2-1.57 4.81-2.34 2.77-1.37 2.77-1.37 5.27-3.18 8.78-5.94 16.07-6.27 26.28-6.19 1.48-.01 2.95-.03 4.43-.05 6.25-.07 12.51-.01 18.76-.01Zm-48 44v3h-4v2h-4v2h-4v2h-4l-1 6c-1.49.5-1.49.5-3 1v6h-4v7h-4l-1 13c-1.49.5-1.49.5-3 1v12h-3v-2c-1.71-1.81-1.71-1.81-3.88-3.62-.71-.64-1.43-1.27-2.17-1.92-1.81-1.66-1.81-1.66-3.95-1.46v-2c-5.72-5.3-12.29-10.02-19-14-.54-.35-1.07-.69-1.62-1.05-6.09-3.56-11.72-3.45-18.63-3.26-1.08.01-2.15.02-3.26.03-6.32.06-6.32.06-12.49 1.28v2h-4l-1 2c-2.31.73-4.65 1.4-7 2v3h-4v4h-4v7h-4v7h-4v29h4v7h4v6l3 1 1 3 3 1 1 2h4v2h4v3h4v2c16.75 4.74 35.73-.75 52-5v11h-4v45h4v6h4v6h4v3h4v2h4v3h4v2h4v2c17.3 1.24 30.17 1.2 44-10 8.55-8.06 12.51-18.49 12.92-30.05.01-1.71.01-1.71.02-3.45.01-1.1.03-2.19.05-3.32-.21-7.76-2.26-12.16-6.99-18.18-.78-1.28-1.53-2.57-2.25-3.88-1.71-3.15-1.71-3.15-3.75-6.12h-2c-.26-.58-.52-1.16-.79-1.75-1.29-2.41-2.76-4.22-4.59-6.25-.61-.69-1.23-1.39-1.87-2.11-1.33-1.44-2.72-2.83-4.13-4.2C197 159 197 159 196 156c.63-.1 1.25-.21 1.89-.32 11.87-2.61 23.45-6.87 34.11-12.68.73-.39 1.47-.78 2.23-1.18 4.97-2.84 7.79-5.97 10.77-10.82.67-.96 1.33-1.92 2.02-2.9 6.32-10.7 7.62-22.96 4.98-35.1-3.73-9.62-9.98-17.25-18.75-22.61C231 69 231 69 229.13 67.53c-6.16-4.65-12.42-4.14-19.88-3.91-1.22.02-2.44.03-3.69.05-6.86.04-6.86.04-13.56 1.33Z" fill="#5A7E01"/><path d="M240 21v2h4v2h4v2h4v3h4v3h4v2h4v2h4v2h4v4h4v7h4v6h4v7h4v7h4v48h-4v8h-4v6l-4 1v7h-4v7h-4v3h-4v2h-4v3h-4v2h-4v2h-4v2h-4v2h-4v2h-4v5h4v7h4v6h4v7l4 1v6h4v43h-4v8h-4v7l-4 1v6h-4v7h-4v5h-4l-1 3h-3v2h-4v2h-4v2h-4v2h-4v2h-4v3h-4v2c-5.69.34-11.39.64-17.09.88-1.92.08-3.84.17-5.76.26-19.03.91-19.03.91-26.7-4.63C157 287 157 287 157 285c-.72-.1-1.44-.21-2.19-.31-3.09-.76-5.23-1.85-7.81-3.69v-2c-.66-.04-1.32-.08-2-.12-4.43-1.3-7.88-3.46-11-6.88-.96-2.86-1-4.93-1-8l-3-1c-1.62-3.76-2.24-6.92-2-11 2.65 2.36 4.25 4.49 5.79 7.63 3.87 6.29 10.69 9.32 16.96 12.81 1.27.72 2.54 1.45 3.81 2.18 2.3 1.32 4.61 2.62 6.93 3.92C164 280 164 280 165 281c5.39.32 10.79.36 16.19.41 1.82.02 3.63.05 5.45.1 13.38.57 13.38.57 25.24-4.95 2.24-1.65 4.31-2.55 6.91-3.53 17.55-7.3 23.58-21.66 31.21-38.03l1-2c2.73-25.09 1.12-43.58-14.76-63.69-1.24-2.31-1.24-2.31-.7-4.47 1.68-2.12 3.08-3.03 5.5-4.24.81-.42 1.62-.83 2.45-1.26.85-.42 1.7-.84 2.57-1.28 2.5-1.27 5-2.54 7.48-3.83 2.46-1.23 2.46-1.23 4.79-2.14 8.21-3.58 11.29-11.21 15.17-18.78.72-1.36 1.44-2.71 2.16-4.07 4.26-8.02 6.76-13.71 7.2-22.91.1-1.68.24-3.35.41-5.02C285.13 82.33 280.21 71.13 269 56c-.46-.7-.92-1.4-1.4-2.13-7.25-10.72-21.21-19.64-33.95-22.37-16.57-2.59-35.91-2.66-50.23 6.94-1.52 1.13-2.98 2.33-4.42 3.56v-3c1.31-1.03 2.65-2.03 4-3v-2h2c.05-.6.11-1.19.16-1.8 1.23-3.22 3.19-3.81 6.22-5.32 3-1.54 5.81-3.01 8.62-4.88 2.45-.24 4.81-.37 7.27-.41 1.06-.03 1.06-.03 2.15-.06 2.28-.06 4.55-.11 6.83-.15 1.52-.04 3.03-.08 4.55-.12 6.4-.16 12.8-.28 19.2-.26Z" fill="#326C22"/><path d="M86.66015625 54.76953125h2.51c1.74 0 3.48.01 5.22.02 2.67.02 5.33.03 7.99.02 1.7.01 3.4.02 5.09.02.8 0 1.59 0 2.41.01 3.54.03 6.71.21 10.12 1.16v3h4v2l4 1v2h4v2h4v3h4v2h4v2l8 1c-1.75 4.88-1.75 4.88-4 6-2.18-1.45-2.18-1.45-4.95-3.62-14.09-10.3-25.65-15.11-43.3-15-.82-.01-1.63-.02-2.47-.03-12.13-.02-20.4 2.99-30.5 9.57-2.88 1.75-5.94 3-9.03 4.33-9.05 5.1-12.96 14.18-17.44 23.2-1.26 2.46-2.66 4.77-4.1 7.12-2.58 4.62-2.99 8.64-3.02 13.87-.02.87-.03 1.74-.04 2.64-.03 1.79-.05 3.58-.06 5.37-.08 2.35-.34 4.58-.7 6.9-1.91 15.25 7.88 28.82 16.61 40.65 5.04 5.48 10.99 9.3 17.25 13.25.58.37 1.15.73 1.74 1.11 9.6 5.99 17.67 9.03 29.01 7.64v1l-9 1 4 2c-12.54 2.74-21.26-1.63-31.69-8.19-.61-.38-1.23-.77-1.86-1.16-16.78-10.64-16.78-10.64-21.26-19.09-.67-1.23-1.35-2.47-2.03-3.7-.34-.63-.69-1.26-1.05-1.92-2.24-3.91-4.74-7.65-7.23-11.41-3.53-5.37-4.04-9.4-4.05-15.71 0-.8 0-1.6-.01-2.43 0-1.7-.01-3.4-.01-5.09 0-2.59-.02-5.18-.03-7.77-.01-1.65-.01-3.3-.01-4.96-.01-1.15-.01-1.15-.02-2.33.03-6.81 1.9-11.88 5.15-17.86.56-1.04 1.12-2.08 1.7-3.15.59-1.06 1.17-2.13 1.77-3.23.58-1.07 1.16-2.13 1.75-3.23 8.91-16.34 8.91-16.34 17.38-20.96.96-.53 1.92-1.06 2.91-1.6 2.59-1.21 2.59-1.21 5.59-1.21v-2c2.23-1.13 4.46-2.25 6.69-3.37.62-.32 1.25-.64 1.89-.97 1.8-.9 3.61-1.78 5.42-2.66l2.18-1.09c3.83-1.23 7.51-1.18 11.48-1.14Z" fill="#2B691B"/><path d="M230 49c11.13 3.75 19.4 10.48 26 20 .85 1.03 1.7 2.06 2.55 3.08 8.14 11.12 8.33 23.22 7.02 36.66-1.3 7.45-4.97 13.38-9.57 19.26h-4c-.5 1.98-.5 1.98-1 4h-3l-1-2-2 4 2 1c-.5 1.49-.5 1.49-1 3-1.49.5-1.49.5-3 1v-2h-2c1.69-4.54 4-8.41 6.56-12.5 5.39-9.37 5.24-21.05 3.44-31.5-2.43-7.11-6.82-12.66-12-18-.54-.57-1.08-1.14-1.64-1.73-8.32-8.16-17.53-8.97-28.7-8.93-5.56.08-11.11.32-16.66.66v3h-4v2h-4v2h-4v2h-4v6l-4 1v6h-4v7h-3c.99-5.4 2.7-10.03 5-15 .3-.65.6-1.3.91-1.98 5.57-11.71 11.44-17.86 23.31-23.12 2.03-.95 2.03-.95 4.44-3.07 8.72-4.78 21.81-3.42 31.34-1.83Z" fill="#749320"/><path d="M144 170v11h-4v45h4v6h4v6h4v3h4v2h4v3h4v2h4v2c17.63.53 29.63-.57 44-11h2c.26-.71.51-1.42.77-2.14 1.23-2.86 1.23-2.86 2.96-5.5 5.02-8.07 6-15.19 6.08-24.67.04-1.67.04-1.67.07-3.36-.11-6.92-1.29-11.15-5.6-16.61C217 185 217 185 217 183c2.62-.56 2.62-.56 6 0 2.46 2.72 4.17 5.83 6 9 .42.54.83 1.07 1.26 1.63 4.57 6.2 4.7 12.21 4.68 19.75v3.74c-.33 10.86-3.43 18.58-9.79 27.26-1.28 1.71-1.28 1.71-2.39 4.2-5.83 8.01-17.89 13.2-27.31 15.16-15.62 1.97-28.56-.16-41.51-9.24-3.57-2.91-6.03-6.01-8.38-9.95-1.55-2.64-1.55-2.64-3.68-5.21-7.14-9.6-6.96-18.56-6.65-30.16.08-3.07.1-6.13.12-9.2.02-1.97.05-3.94.08-5.91.01-.91.02-1.81.02-2.75.17-5.49 1.05-9.42 3.55-14.32h3l-1-4c-1.16.33-2.31.66-3.5 1-4.28 1.08-8.1 1.16-12.5 1 3.26-2.17 5.69-2.78 9.5-3.62 1.14-.27 2.29-.53 3.47-.79C141 170 141 170 144 170Z" fill="#759420"/><path d="M114 80c5.53 1.72 10.15 4.63 14 9v4l5 1v3c-4.22 0-4.64-.23-7.84-2.48-6.29-3.66-12.64-3.07-19.72-2.83-1.94.03-1.94.03-3.93.07-3.17.05-6.34.14-9.51.24v2h-4l-1 3-7 1v3h-4v4h-4v7h-4v7h-4v29h4v7h4v6l4 1v3l4 1v2h4v2h4v3h4v2h31c-5.49 5.49-18.8 3.81-26.17 3.87C84.07 178.75 74.5 174.53 65 166c-2.29-2.37-4-4.41-5.54-7.31-1.43-2.73-1.43-2.73-3.22-5.32-5.11-7.8-6.4-13.94-6.18-23.18.02-1.23.03-2.46.05-3.72.38-10.43 2.79-17.09 8.89-25.47.35-.65.7-1.3 1.07-1.98 3.22-5.91 7.04-8.38 12.99-11.33 1.6-.83 3.19-1.66 4.79-2.49.7-.35 1.4-.71 2.12-1.07 2.09-1.08 2.09-1.08 3.91-2.73 7.18-4.75 21.94-2.52 30.12-1.4Z" fill="#749320"/><path d="M23 111h1c.02.84.04 1.68.06 2.54.08 3.1.16 6.21.26 9.31.05 2.01.1 4.01.15 6.02.04 1.26.08 2.51.12 3.81.03 1.16.06 2.32.09 3.52.04 2.94.04 2.94 2.32 4.8l2-1c.07.94.07.94.15 1.9.07.82.15 1.63.23 2.48.06.81.13 1.62.21 2.46.24 2.36.24 2.36 2.41 4.16-.03 2.73-.56 5.3-1 8 .9-.34.9-.34 1.81-.69 1.09-.15 1.09-.15 2.19-.31 1.75 1.44 1.75 1.44 3 3-1 3-1 3-2 4l2 1 1-2c3.46.94 4.74 1.57 6.64 4.69.53 1.09 1.06 2.18 1.61 3.31 4.53 8.3 11.61 11.67 19.76 15.9 2.68 1.48 5.05 3.32 7.49 5.16 6.79 4.48 14.63 4 22.5 3.94v1c-4.45.5-4.45.5-9 1l4 2c-12.54 2.74-21.26-1.63-31.69-8.19-.61-.38-1.23-.77-1.86-1.16-16.78-10.64-16.78-10.64-21.26-19.09-.67-1.23-1.35-2.47-2.03-3.7-.34-.63-.69-1.27-1.05-1.92-2.24-3.91-4.74-7.65-7.23-11.41-3.59-5.46-4.02-9.51-3.98-15.92 0-.81.01-1.63.01-2.47 0-2.61.01-5.22.03-7.83 0-1.77.01-3.54.01-5.3.01-4.34.03-8.67.05-13.01Z" fill="#326D22"/><path d="m184 31 2 1-1 2h-2l1 3c-1.21.65-1.21.65-2.44 1.31-2.84 1.49-2.84 1.49-3.56 4.69-1.64.78-3.31 1.5-5 2.19-8.14 4.14-11.2 11.91-15 19.81l-3-1c1.4-4.72 3.41-8.83 5.88-13.06.33-.6.67-1.2 1.02-1.82 4.04-7.01 7.62-10.86 14.72-14.5 1.03-.55 1.03-.55 2.07-1.11 1.73-.91 3.52-1.72 5.31-2.51Z" fill="#2B6819"/><path d="M23 111h1c.02.84.04 1.68.06 2.54.08 3.1.16 6.21.26 9.31.05 2.01.1 4.01.15 6.02.04 1.26.08 2.51.12 3.81.03 1.16.06 2.32.09 3.52.04 2.94.04 2.94 2.32 4.8l2-1c.07.94.07.94.15 1.9.07.82.15 1.63.23 2.48.06.81.13 1.62.21 2.46.24 2.36.24 2.36 2.41 4.16-.03 2.73-.56 5.3-1 8 .9-.34.9-.34 1.81-.69 1.09-.15 1.09-.15 2.19-.31 1.75 1.44 1.75 1.44 3 3l-1 3c-.34 1.33-.68 2.66-1 4-3.42-3.13-5.82-6.61-8.19-10.56-.35-.58-.71-1.16-1.07-1.75-3.37-5.55-3.88-9.7-3.84-16.08 0-.81.01-1.63.01-2.47 0-2.61.01-5.22.03-7.83 0-1.77.01-3.54.01-5.3.01-4.34.03-8.67.05-13.01Z" fill="#629058"/><path d="M132 98c5.97-.35 9.04.44 13.57 4.36 2.29 2.11 4.54 4.27 6.79 6.43 3.41 3.24 3.41 3.24 7.64 5.21v6h-3v-2c-.8-.34-.8-.34-1.62-.69-3.2-1.77-5.67-3.85-8.38-6.31v-2c-.58-.27-1.15-.54-1.75-.82-2.29-1.2-4.25-2.56-6.31-4.12-.67-.5-1.35-1.01-2.04-1.52-1.76-1.43-3.34-2.91-4.9-4.54Z" fill="#97AD5E"/><path d="M68 61c-.25 2.87-.25 2.87-1 6-1.94 1.25-1.94 1.25-4 2l-2 2-3-1v2c-3.73 2.03-5.67 3-10 3v-2c-1.18 1.24-1.18 1.24-2.38 2.5C43 78 43 78 41 78l-1 5h-2c1.59-6.22 4.22-9.28 9.67-12.64C55.39 66 55.39 66 59 66v-2c6.75-3 6.75-3 9-3Z" fill="#4B803F"/><path d="M118 197c-.01 1.06-.02 2.13-.03 3.23-.04 3.96-.06 7.92-.08 11.88-.01 1.71-.02 3.42-.04 5.13-.03 2.47-.04 4.93-.05 7.4-.01.76-.02 1.52-.03 2.3 0 4.19.55 7.25 2.23 11.06-.5.99-.5.99-1 2h-2c-1.27-3.8-1.23-7.42-1.32-11.39-.02-.81-.04-1.63-.06-2.47l-.18-7.83c-.05-1.77-.09-3.54-.13-5.3-.11-4.34-.21-8.67-.31-13.01H83v-1c11.71-2.2 23.13-2.22 35-2Z" fill="#2F6A1C"/><path d="M224 194c2 2 2 2 2.24 4.46 0 1.52 0 1.52-.01 3.06 0 1.11 0 2.21-.01 3.35-.01 1.15-.02 2.31-.03 3.51v3.48c-.05 8.61-.05 8.61-.76 11.31-.65 2.05-.65 2.05.57 4.83l-5 2 1 3c-.62 2.62-.62 2.62-2 5-2.63.81-2.63.81-5 1l-1-2c1.01-1.64 2.02-3.28 3.06-4.9 7.53-12.04 7.27-24.24 6.94-38.1Z" fill="#A4B86E"/><path d="M86.703125 54.90234375h2.54c2.67.01 5.34.02 8.01.04 1.81 0 3.62 0 5.43.01 4.44.01 8.88.03 13.32.05v1h-33v2h12v2c-1.47.09-1.47.09-2.97.18-1.31.09-2.62.17-3.97.26-1.03.06-1.03.06-2.07.13-3.77.24-7.5.59-11.24 1.12-3.75.31-3.75.31-6.75-1.69 6.56-4.62 10.79-5.15 18.7-5.1Z" fill="#57884B"/><path d="M214 239v6c-2.97 1.65-5.66 2.44-9 3v2c-4.25 2.08-7.58 2.17-12.27 1.98-.68-.03-1.36-.05-2.06-.08-2.16-.08-4.32-.18-6.48-.28-1.47-.05-2.94-.11-4.41-.17-3.6-.14-7.19-.29-10.78-.45v-1c.7.02 1.4.04 2.12.07C187.2 250.42 201.37 239 214 239Z" fill="#9EB363"/><path d="M227 61c1.32.37 2.66.71 4 1v2c2.47.99 2.47.99 5 2l-2 1 2 5c-2.4-.82-4.55-1.66-6.59-3.19-6.13-4.59-11.95-4.58-19.41-4.62-1.16-.03-2.31-.05-3.5-.08-2.84-.06-5.67-.09-8.5-.11v-1c4.46-.49 4.46-.49 9-1v-1c2.58-.39 5.16-.76 7.75-1.12.73-.12 1.46-.23 2.21-.34 4-.55 6.63-.83 10.04 1.46Z" fill="#89A344"/><path d="m204 155-3 1c.52.76 1.03 1.53 1.56 2.31.48.89.95 1.78 1.44 2.69l-1 3h2l1-2c.29.74.58 1.49.88 2.25.37.91.74 1.81 1.12 2.75.25.72.5 1.44.75 2.19 1.85 2.68 4.2 2.88 7.25 3.81 1.88 1.31 1.88 1.31 3 3 .19 2.69.19 2.69 0 5l-3 1c-4-4.75-4-4.75-4-7h-2c-1.48-1.72-1.48-1.72-3.19-4.06-2.89-3.87-5.96-7.19-9.52-10.43C196 159 196 159 196 156c4.62-2.12 4.62-2.12 8-1Z" fill="#A1B669"/><path d="M37 83c.59 1.86.59 1.86 1 4-.47.74-.95 1.48-1.44 2.25-2.16 3.8-1.78 6.42-1.56 10.75l-3 1v2h2l-1 2c-2.06.62-2.06.62-4 1l1 3-2 3-4-1c-.6-4.93 1.58-7.93 4-12 .79-1.39 1.58-2.79 2.36-4.18.59-1.05.59-1.05 1.19-2.12.59-1.06.59-1.06 1.2-2.14.41-.73.82-1.46 1.25-2.21 1-1.79 2-3.57 3-5.35Z" fill="#29681A"/><path d="M92 199c3.81-.03 7.62-.05 11.44-.06 1.09-.01 2.17-.02 3.3-.03 1.03 0 2.07 0 3.13-.01.96 0 1.92-.01 2.91-.01C115 199 115 199 116 200c.16 2.96.26 5.89.32 8.85.02.88.04 1.77.06 2.68.06 2.85.12 5.69.18 8.53.05 1.93.09 3.85.13 5.77.11 4.72.21 9.45.31 14.17h2v-2h2c-1.88 5.75-1.88 5.75-3 8-3.4-5.93-4.57-10.09-4.39-16.88.01-.8.01-1.61.02-2.45.02-2.56.07-5.11.12-7.67.02-1.75.04-3.49.05-5.24.05-4.25.12-8.5.2-12.76l-22-1v-1Z" fill="#A1BB9B"/><path d="M139 197h1v29h4c.37 4.52.37 4.52-1.38 6.81C141 234 141 234 139 234c-3.67-4.37-3.32-8.6-3-14l3-1v-22Z" fill="#93AA54"/><path d="M139 186h1l-1 33c-1.49.5-1.49.5-3 1-.62-23.79-.62-23.79 3-34Z" fill="#6D8A20"/><path d="M251 117c1.12 3.75 1.12 3.75 0 6h3l1 5h-3l-1 4h-3l-1-2-2 4 2 1-1 3-3 1v-2h-2c1.69-4.54 4-8.41 6.56-12.5 1.41-2.44 2.46-4.86 3.44-7.5Z" fill="#85A03A"/><path d="m36 169 4 2 1-2c1.38 1.29 2.71 2.63 4 4v2h2c.12 1.36.12 1.36.25 2.75.84 3.65 1.93 4.88 4.75 7.25-4.75 0-7.6-2.85-11-6-5-6.46-5-6.46-5-10Z" fill="#59894E"/><path d="M253 87c1.95 1.02 1.95 1.02 4 3 .46 2.69.69 5 .75 7.69.03.7.06 1.4.09 2.12.07 1.73.12 3.46.16 5.19h-1v-6h-2v8h-1l-1 10h-1c-.04-1.07-.04-1.07-.08-2.16-.11-3.21-.23-6.43-.36-9.65-.04-1.12-.08-2.24-.12-3.4-.04-1.07-.08-2.14-.12-3.25-.04-.99-.08-1.98-.11-3-.12-2.66-.12-2.66-1.21-5.54h2l1-3Z" fill="#90A84D"/><path d="m143 271 5 1c-.99.5-.99.5-2 1v2h5v2h4v2h-2v3h2l1 3c-3.08-1.2-6.06-2.48-9-4v-2c-1.21-.19-1.21-.19-2.44-.38-.84-.2-1.69-.41-2.56-.62l-1-2 2-1v-4Z" fill="#528346"/><path d="M90 173h2v2h31c-3.68 3.68-8.66 3.06-13.62 3.1-2.08-.01-4.17-.02-6.26-.04-1.6 0-1.6 0-3.24-.01-2.62-.01-5.25-.03-7.88-.05l-2-5Z" fill="#8EA749"/><path d="m124 248 2 2h-2v-2Zm-3 1 3 1v2l4-2c1.26 2.52 1.1 4.31 1.06 7.12-.01.92-.02 1.83-.02 2.76-.02.7-.03 1.4-.04 2.12l4 2v4l2 1-2 2c-9.41-14.69-9.41-14.69-12-22Z" fill="#568749"/><path d="M217 183c2.75-.38 2.75-.38 6 0 3.1 3.59 4 5.21 4 10l-4 1c-1.01-1.45-2-2.91-3-4.38-.56-.81-1.11-1.62-1.69-2.46C217 185 217 185 217 183Z" fill="#74931E"/><path d="M225 61v3h-27v-1c4.46-.49 4.46-.49 9-1v-1c14-2 14-2 18 0Z" fill="#ABBD7A"/><path d="M91 88h5v1l24 1v1l-28 1v2h-3l-1-4h3v-2Z" fill="#9DAC78"/><path d="M120 240h2c1.32 1.61 1.32 1.61 2.69 3.75.46.7.91 1.39 1.38 2.11 1.1 2.53.87 3.6-.07 6.14h-2v-2c-.8-.23-1.61-.45-2.44-.69-2.56-1.31-2.56-1.31-3.5-3.75C118 243 118 243 120 240Zm4 8v2l2-1-2-1Z" fill="#2A6819"/><path d="M164 46h1c.45 5.29-.89 8.31-3.5 12.88-.33.59-.67 1.18-1.01 1.79-.82 1.45-1.65 2.89-2.49 4.33l-3-1c1.35-4.51 3.17-8.32 5.56-12.38.62-1.05 1.24-2.11 1.88-3.21.77-1.19.77-1.19 1.56-2.41Z" fill="#5C8A4D"/><path d="M210 172c3.27-.36 4.61-.29 7.31 1.69 1.98 2.7 2.05 4.04 1.69 7.31l-3 1c-4-4.75-4-4.75-4-7h-2v-3Z" fill="#809D35"/><path d="m240 137 1 2c-3.49 3.61-6.08 6.12-11.19 6.62-1.26.13-2.51.25-3.81.38v2l-4-1 18-10Z" fill="#A4B86D"/><path d="M252 128h3c-1.35 4.41-3.19 6.43-7 9h-2c-1-2-1-2-1-5l2-3 4 2 1-3Z" fill="#73931D"/><path d="M126 89h2v4l5 1v3c-4.15 0-5.31-.48-8.75-2.5-.8-.46-1.6-.93-2.42-1.41-.61-.36-1.21-.72-1.83-1.09 3.75-1.12 3.75-1.12 6 0v-3Z" fill="#94AB57"/><path d="M241 23h3v2h4v2h4v3l4 1h-8c-.25-.64-.5-1.28-.75-1.94-1.05-2.26-1.05-2.26-3.31-2.62-.64-.15-1.28-.29-1.94-.44l-1-3Z" fill="#477C3A"/><path d="M167 287h10v2c-4.49 1.75-8.18 2.45-13 2-1.94-1.5-1.94-1.5-3-3 2.97.5 2.97.5 6 1v-2Z" fill="#457B39"/><path d="M128 90c5.09 1.59 8.87 4.74 13 8-3.07 1.53-5.7.55-9 0l1-3c-2.47-.99-2.47-.99-5-2v-3Z" fill="#74921E"/><path d="m184 31 2 1-1 2h-2l1 3-5 2v-2l-6 1c3.46-2.95 6.8-5.23 11-7Z" fill="#6A9660"/><path d="M146 104c3.03 1.72 5.76 3.29 8 6v2c-1.81.62-1.81.62-4 1l-3-2c-.69-3.62-.69-3.62-1-7Z" fill="#85A03A"/><path d="M248 80h2v2h2v5h-2l-1 3-4-6 1-2 2 1v-3Z" fill="#8CA647"/><path d="M162 96h2v11l-4 1c.14-1.81.29-3.63.44-5.44.08-1.01.16-2.02.24-3.06C161 97 161 97 162 96Z" fill="#728D2C"/><path d="m247 125 2 4-4 4 2 2-1 3-3 1v-2h-2c1.57-4.31 3.68-8.06 6-12Z" fill="#9BB15F"/><path d="M90 173h2v2l19 1v1c-9.41.5-9.41.5-19 1l-2-5Z" fill="#ADBF7D"/><path d="m231 273 4 1v3h-3v2h-4v2l-2-1v-4c2.47.5 2.47.5 5 1v-4Z" fill="#4E7844"/><path d="m173 38-2 7-6 1c1.34-4.14 3.12-8 8-8Z" fill="#709966"/><path d="M223 220h1v5h2v3l-7 2c1.11-3.49 2.26-6.77 4-10Z" fill="#9CB260"/><path d="M260 35h4v2h4l-1 3-5 1-2-6Z" fill="#3F7731"/><path d="M72 198h5v2h15v1c-2.77.08-5.54.14-8.31.19-.79.02-1.57.05-2.38.07-.76.01-1.52.02-2.3.03-.69.02-1.39.03-2.11.05-2.44-.44-3.33-1.47-4.9-3.34Z" fill="#B7C5B4"/><path d="M217 183h6v7c-.99.5-.99.5-2 1-4-5.75-4-5.75-4-8Z" fill="#9EB463"/><path d="M37 83c1.02 2.65 1.13 3.69 0 6.36-.47.79-.95 1.58-1.44 2.39-.47.8-.94 1.6-1.43 2.42-.37.61-.75 1.21-1.13 1.83h-2c1.69-4.5 3.82-8.73 6-13Z" fill="#7BA172"/><path d="m154 64 1 4h-2v6l-6 1-1-2h3l5-9Z" fill="#92B18A"/><path d="M120 240h2l2 4-3 2v3l-2-1c-.75-2.38-.75-2.38-1-5l2-3Z" fill="#437A35"/><path d="M78 165c.99.5.99.5 2 1v2h4v2l4 1-6 1v-2l-4-1v-4Z" fill="#8EA74A"/><path d="M142 171h2v10h-3l1-10Z" fill="#7E9448"/><path d="M206 163c2.93 2.85 5.64 5.65 8 9-2.31-.19-2.31-.19-5-1-2.21-2.9-3-4.33-3-8Z" fill="#73931D"/><path d="m116 237 1 3h2v-2h2c-1.88 5.75-1.88 5.75-3 8-3.08-4.43-3.08-4.43-2.69-7.31.23-.56.46-1.12.69-1.69Z" fill="#6E9863"/><path d="M212 176c2.47.99 2.47.99 5 2v-2h2v5l-3 1-4-6Z" fill="#9AB15E"/><path d="m45 72 2 1c-1.28 1.71-2.62 3.37-4 5h-2l-1 5h-2c1.28-4.99 3.17-7.58 7-11Z" fill="#95B48E"/><path d="M128 261c2.5 1.25 2.5 1.25 5 3v4l2 1-2 2c-.84-1.29-1.67-2.58-2.5-3.88-.46-.71-.93-1.43-1.41-2.17C128 263 128 263 128 261Z" fill="#8CAD84"/><path d="m25 105 1 4 4-1-2 4-4-1c-.04-1.67-.04-3.33 0-5l1-1Z" fill="#58894C"/><path d="M164 46h1c.12 2.88.12 2.88 0 6-2 2-2 2-5 3 1.06-3.4 2.01-6.01 4-9Z" fill="#88AA7D"/><path d="M154 241h2v2h4l-1 3-5-1v-4Z" fill="#92AA4F"/><path d="m219 178 4 4-3 2-3-1v-2h2v-3Z" fill="#74931E"/><path d="M30 96c.69 1.69.69 1.69 1 4-1.31 2.75-1.31 2.75-3 5h-2c1.06-3.4 2.01-6.01 4-9Z" fill="#85A87C"/><path d="M236 72h4v2h3v5c-1.17-.98-2.34-1.96-3.5-2.94-.65-.54-1.3-1.09-1.97-1.65-.5-.47-1.01-.93-1.53-1.41v-1Z" fill="#B4C38C"/><path d="m134 271 7 2v3c-3.65-1.25-4.78-1.67-7-5Z" fill="#7EA075"/><path d="M64 193c3.69.5 5.6 1.1 8 4-.99.5-.99.5-2 1-2.02-1.3-4.02-2.64-6-4v-1Z" fill="#8CAA85"/><path d="m225 188 2 1v4l-4 1-1-3 3-3Z" fill="#8EA749"/><path d="m27 154 4 1v5l2 1h-3c-3-4.22-3-4.22-3-7Z" fill="#8AAB83"/></svg>