<svg xmlns="http://www.w3.org/2000/svg" viewBox="0 0 208 201"><path d="M116 32v2c1.73.15 1.73.15 3.5.31 4.51.55 8.31 1.97 12.5 3.69v2h4v2h4v3h4v4h4v5h4v5h4v31h-2c-.22 6.47.03 12.33 1.66 18.61 1.14 7.99-3.55 14.91-7.66 21.39-1.94 2.19-3.5 3.43-6 5h-2c-.5 1.49-.5 1.49-1 3h-3c-.5 1.49-.5 1.49-1 3-11.83 7.39-24.55 6.68-38 6v-2c-.54-.23-1.07-.45-1.62-.69-3.64-2-7.49-4.54-9.38-8.31h-3v-2c-1.73-.19-1.73-.19-3.5-.38C68.2 132.2 68.2 132.2 65 129c-1.48-.5-1.48-.5-3-1v-2l-5-1v-2h-3v-2h-2c-6.87-17.91-6.87-17.91-7-28-.07-.68-.14-1.37-.22-2.07-.64-8.5 1.97-19.53 7.05-26.41 1.96-1.75 3.93-3.13 6.17-4.52.57-.48 1.14-.95 1.73-1.44 5-3.87 10.4-4.36 16.55-4.66 3.77-.28 5.59-.79 8.56-3.19 1.87-2.34 3.15-4.43 4.47-7.09 3-4.69 6.67-6.52 11.63-8.68.68-.3 1.36-.6 2.06-.91 4.53-1.82 8.13-2.33 13-2.03Z" fill="#A0A14E"/><path d="M120 72c.5 1.48.5 1.48 1 3l3 1c2.14 2.21 2.94 3.5 3.29 6.58-.03.88-.07 1.76-.1 2.67-.04 1.34-.04 1.34-.08 2.7-.04.68-.07 1.35-.11 2.05l4 1c.62 2.31.62 2.31 1 5l-2 3h-3c-.1 1.07-.21 2.15-.31 3.25-.69 3.76-1.4 4.89-3.69 7.75-.35 1.66-.68 3.33-1 5-2.3 1.15-3.58 1.12-6.13 1.1-.81-.01-1.61-.01-2.44-.01-1.27-.01-1.27-.01-2.55-.03-1.28 0-1.28 0-2.58-.01-2.1-.01-4.2-.03-6.3-.05v-2h-3v2c-2.88.12-2.88.12-6 0-2-2-2-2-2.12-4.62.06-1.18.06-1.18.12-2.38-.76-.25-1.53-.5-2.31-.75-3.99-1.85-5.17-4.04-6.88-8C80.1 93.4 80.45 88.16 84 82c2-1.33 4-2.67 6-4 1.35-2.29 2.12-4.47 3-7 1.22.04 2.43.08 3.69.12 2.75.02 4.24-.09 6.81-1.18 5.17-1.94 11.58-.1 16.5 2.06Z" fill="#AFAE6D"/><path d="M116 32v2c1.73.15 1.73.15 3.5.31 4.51.55 8.31 1.97 12.5 3.69v2h4v2h4v3h4v4h4v5h4v5h4v31h-2c-.22 6.47.03 12.33 1.66 18.61 1.14 7.99-3.55 14.91-7.66 21.39-1.94 2.19-3.5 3.43-6 5h-2c-.5 1.49-.5 1.49-1 3h-3c-.5 1.49-.5 1.49-1 3-11.83 7.39-24.55 6.68-38 6v-2l-3-1 1-3c.65.04 1.3.08 1.97.12 2.95.18 5.9.34 8.84.5 1.03.07 2.05.13 3.11.2 1.47.08 1.47.08 2.97.16.91.05 1.82.1 2.75.16 2.63.04 2.63.04 5.36-2.14 1.45-.36 2.91-.69 4.38-1 6.41-1.79 10.89-5.76 15.93-9.92C143 127 143 127 145 127c.08-.66.16-1.32.25-2 .68-2.71 1.47-4.42 2.81-6.81 2.69-5.18 2.42-9.39 1.44-15.13-.81-4.95-1.31-9.9.47-14.67 2.55-8.42 3.43-20.87-.76-28.76-1.96-2.11-3.96-3.84-6.21-5.63v-2c-.52-.25-1.03-.5-1.56-.75-3.21-1.65-6.32-3.45-9.44-5.25v-2c-2.99-1.04-5.99-2.03-9-3-.67-.22-1.34-.45-2.03-.68-7.08-2.11-13.87-1.62-20.47 1.74-.63.36-1.26.73-1.91 1.1C97 44 97 44 95 44c-.31.78-.62 1.57-.94 2.38-1.83 4.51-1.83 4.51-3.94 5.5-2.49 1.31-3.47 2.87-5.12 5.12h-2v-3h2c.11-.72.22-1.45.34-2.2 1.34-5.7 4.43-10.74 9.44-13.94 6.95-3.71 13.28-6.34 21.22-5.86Z" fill="#797E0D"/><path d="M80 55v3c-.73.04-1.45.08-2.2.12-8.98.93-15.5 4.36-21.8 10.88-5.38 11.81-5.09 31.13-1.31 43.38 3.33 7.12 9.2 10.71 16.31 13.62 3.44 1.2 6.93 2.22 10.44 3.2 5.5 1.58 8.7 3.65 12.56 7.8-3 1-3 1-7 1l-1-2h-3v-2c-1.73-.19-1.73-.19-3.5-.38C68.2 132.2 68.2 132.2 65 129c-1.48-.5-1.48-.5-3-1v-2l-5-1v-2h-3v-2h-2c-6.87-17.91-6.87-17.91-7-28-.07-.68-.14-1.37-.22-2.07-.64-8.5 1.97-19.53 7.05-26.41 1.96-1.75 3.94-3.13 6.17-4.52.59-.5 1.19-1 1.8-1.51C65.89 53.73 72.59 54.53 80 55Z" fill="#83871E"/><path d="M116 32v1c-.97.29-1.94.58-2.94.88-3.17.76-3.17.76-4.06 3.12h5v1c-1.09.27-1.09.27-2.2.55-5.27 1.37-9.97 2.85-14.8 5.45h-2c-.31.78-.62 1.57-.94 2.38-1.83 4.51-1.83 4.51-3.94 5.5-2.49 1.31-3.47 2.87-5.12 5.12h-2v-3h2c.11-.72.22-1.45.34-2.2 1.34-5.7 4.43-10.74 9.44-13.94 6.95-3.71 13.28-6.34 21.22-5.86Z" fill="#8E9231"/><path d="m50 73 3 1c-.48 4.71-.97 8.67-3 13-1.56-1.06-1.56-1.06-3-3 .22-4.11.87-7.45 3-11Z" fill="#787D08"/><path d="m96 137 1 3 20 2v1c-.65-.03-1.3-.06-1.97-.09-2.95-.14-5.9-.27-8.84-.41-1.03-.05-2.05-.1-3.11-.14-.98-.05-1.96-.09-2.97-.14-.91-.04-1.82-.09-2.75-.13-1.79-.07-3.57-.09-5.36-.09-2.19-2-2.19-2-4-4 2.93-.98 4.96-1.08 8-1Z" fill="#919437"/><path d="M46 81c2 3 2 3 3 6-.44 2.19-.44 2.19-1 4h-2l-1 2c-.03-1.44-.05-2.87-.06-4.31-.01-.8-.03-1.6-.04-2.43C45 84 45 84 46 81Z" fill="#A9AD63"/><path d="m89 48 2 1c-.95 1.34-1.91 2.67-2.88 4-.53.74-1.06 1.48-1.61 2.25-.75.87-.75.87-1.51 1.75h-2v-3h2v-3c2-1.69 2-1.69 4-3Z" fill="#7A7F0B"/></svg>