<svg xmlns="http://www.w3.org/2000/svg" viewBox="0 0 526 430"><path d="M202 75c1.55.2 1.55.2 3.13.4 9.19 1.19 9.19 1.19 18.42 2.06 15.03 1.29 26.65 6.67 39.83 13.73 2.01 1.05 4.03 2.09 6.05 3.14 4.88 2.52 9.73 5.08 14.57 7.67v2c1.31 1.03 2.65 2.02 4 3 3.76 3.42 3.76 3.42 4.88 6.06 1.68 2.9 4.13 3.64 7.12 4.94v2c1.31 1.03 2.65 2.02 4 3 2.75 2.51 4.44 4.65 6 8l2 2c2 3.56 2 3.56 2 6l2 2c2 3.56 2 3.56 2 6l2 2v3l2 2c.67 1.33 1.33 2.67 2 4l2 2v3l2 2v5l2 2c.14 2.84-.01 5.63-.12 8.47-.16 2.7-.16 2.7 2.12 4.53.14 2.84-.01 5.63-.12 8.47-.16 2.7-.16 2.7 2.12 4.53.26 1.85.26 1.85.27 4.06v2.42c0 .83-.01 1.66-.02 2.52.01.83.02 1.67.02 2.52v2.42c-.01.73-.01 1.46-.01 2.21C334 216 334 216 332 218c-.17 2.6-.17 2.6 0 5.5.12 2.97.12 2.97 0 5.5l-2 2c-.17 2.6-.17 2.6 0 5.5.12 2.97.12 2.97 0 5.5l-2 2v7l-2 2-1 2c-1 2-1 2-3 4v3l-2 2v3l-2 2c-1.61 2.83-1.61 2.83-2 6l-2 2c-1.61 2.83-1.61 2.83-2 6-1.31 1.03-2.65 2.02-4 3-2.22 2.08-4.13 4.16-6 6.56-1.88 2.29-3.62 3.73-6 5.44-1.35 1.31-2.69 2.65-4 4l-8 8c-.8.89-1.61 1.77-2.44 2.69-2.67 2.41-4.04 3.01-7.56 3.31v2l-9 3v1l-5 1v2l-8 2v2c-11.89 6.37-26.38 7-39.59 8.68-2.18.29-4.34.62-6.51.97-1.43.17-1.43.17-2.9.35-1-1-1-1-1.12-2.84v-5.27c0-1.02 0-2.05.01-3.1v-3.25c0-3.57 0-7.13.01-10.7 0-2.46.01-4.93.01-7.39 0-6.51.01-13.01.02-19.51.01-6.63.02-13.26.02-19.89.01-13.01.03-26.03.05-39.05 1.38-.46 1.38-.46 2.78-.93 7.09-2.36 12.4-4.41 16.22-11.07 2.24-6.27 2.61-11.81.02-18-3.21-6.27-5.62-8.1-12.27-10.31-1.59-.46-1.59-.46-3.2-.93C203 186 203 186 202 185c-.1-1.43-.12-2.86-.12-4.3v-2.81c0-1.02 0-2.05.01-3.1v-3.25c0-3.57 0-7.13.01-10.7 0-2.46.01-4.93.01-7.39 0-6.51.01-13.01.02-19.51.01-6.63.02-13.26.02-19.89.01-13.01.03-26.03.05-39.05Z" fill="#CAAB60"/><path d="M204 164c2.1 1.04 4.17 2.09 6.23 3.22 4.34 2.32 8.14 4.01 13.02 4.78 5.07.89 7.41 1.99 10.75 6 .76 2.48 1.2 4.89 1.59 7.45.9 5.57 3.02 10.09 6.16 14.74 2.23 3.48 2.23 3.48 2.37 6.31-1.34 2.98-3.06 5.59-4.85 8.32-3.28 5.61-4.59 11.78-5.27 18.18h-2l-1 4h-2v2c-1.19.16-1.19.16-2.41.33-9.78 1.4-9.78 1.4-17.78 6.86L207 248h-3v-20c4.95-.5 4.95-.5 10-1l1-4c1.34-1.54 1.34-1.54 2.94-3.06 3.93-4.44 4.94-9.08 5.06-14.94-.93-6.03-3.43-10.91-8-15-2.61-1-5.17-1.73-7.89-2.36-.7-.21-1.39-.42-2.11-.64-1.23-2.45-1.11-4.05-1.1-6.79.01-.94.01-1.88.01-2.85.01-.99.02-1.97.03-2.98 0-1 .01-1.99.01-3.01.01-2.46.03-4.91.05-7.37Z" fill="#CF9E50"/><path d="m202 75 16 2c3.12.39 3.12.39 6.3.78l5.58.72c.96.12 1.92.23 2.91.36 1.37.18 1.37.18 2.76.36 1.22.15 1.22.15 2.46.31C240 80 240 80 242 82c-5.97 1.33-11.93 1.09-18 1l-1-3c-5.67-1.23-11.24-1.09-17-1v-2h-2l1 109-3-1V75Z" fill="#EFE7D5"/><path d="M203 76c7.96-.26 15.57.73 23.44 1.88 1.91.26 1.91.26 3.87.52 1.82.26 1.82.26 3.69.53 1.1.16 2.21.31 3.35.48C240 80 240 80 242 82c-5.97 1.33-11.93 1.09-18 1l-1-3c-5.67-1.23-11.24-1.09-17-1v-2h-2v5h-1v-6Z" fill="#DBBC84"/><path d="M281 101c2.75 1.84 4.71 3.64 7 6 .7.68 1.4 1.36 2.12 2.06C292 111 292 111 294 114l-7-1-1-3h-3c-1.5-3.37-2-5.2-2-9Z" fill="#D1AD6D"/></svg>