<svg xmlns="http://www.w3.org/2000/svg" viewBox="0 0 223 204"><path d="m140 40 3 3c.91.26 1.81.51 2.74.77 3.9 1.47 5.88 3.34 8.81 6.28.49.5.99.99 1.5 1.5 1.05 1.05 2.09 2.1 3.12 3.15 1.58 1.61 3.17 3.2 4.77 4.78 8.35 8.4 8.35 8.4 10.06 13.52.5.95 1.01 1.89 1.52 2.87 1.61 3.4 2.38 6.51 3.1 10.19.24 1.19.48 2.38.73 3.6.32 1.65.32 1.65.65 3.34.21.85.43 1.69.64 2.56.44 3.01.01 5.4-.58 8.38-.8 4.1-1.17 7.88-1.06 12.06h-2c.08.84.16 1.69.24 2.56-.29 4.21-1.88 7-4.05 10.5-.36.6-.72 1.2-1.08 1.82-1.03 1.71-2.07 3.42-3.11 5.12-.46.84-.93 1.68-1.41 2.54-8.02 12.39-21.06 21.42-35.4 24.84-1.4.22-2.79.43-4.19.62-.86.18-1.71.36-2.6.55-6.53 1.36-12.74 1.68-19.4 1.45v-2c-1.16.04-2.31.08-3.5.12-4.44.02-8.24-.9-12.5-2.12v-2c-.76-.21-1.53-.41-2.31-.62-5.19-1.94-9.88-4.66-14.69-7.38v-2h-2c-1.33-1.36-1.33-1.36-2.81-3.19-1.79-2.2-3.55-4.15-5.63-6.1-9.11-9.66-12.2-22.88-13.56-35.71-.09-.83-.18-1.66-.27-2.51-.11-2.23.02-4.27.27-6.49.13-1.17.26-2.33.4-3.53C51.32 78.58 56.94 65.91 67 56c.69-.8 1.38-1.59 2.1-2.41C85.3 35.68 118.14 27.86 140 40Z" fill="#C84E4C"/><path d="M137.1875 38.4375c2.49 1.38 3.85 2.6 5.81 4.56.91.26 1.81.51 2.75.78 3.89 1.46 5.87 3.34 8.8 6.27l1.51 1.51c1.04 1.04 2.08 2.09 3.11 3.15 1.58 1.6 3.18 3.19 4.77 4.77 8.35 8.4 8.35 8.4 10.06 13.52.51.95 1.01 1.9 1.53 2.87 1.6 3.4 2.37 6.51 3.1 10.19.24 1.19.48 2.38.72 3.6.22 1.1.43 2.21.65 3.34.22.85.43 1.69.65 2.56.44 3.01 0 5.4-.58 8.38-.8 4.1-1.17 7.88-1.07 12.06h-2c.08.85.16 1.69.24 2.56-.29 4.21-1.88 7-4.05 10.5-.36.6-.71 1.2-1.08 1.82-1.02 1.71-2.07 3.42-3.11 5.12-.46.84-.93 1.68-1.4 2.54-8.03 12.4-21.07 21.42-35.41 24.84-1.39.22-2.79.43-4.19.62-.85.18-1.71.36-2.6.55-6.53 1.36-12.74 1.68-19.4 1.45v-2c-1.15.04-2.31.09-3.5.13-4.44.01-8.23-.91-12.5-2.13v-2c-1.14-.31-1.14-.31-2.31-.62-5.19-1.94-9.88-4.66-14.69-7.38v-2h-2c-1.33-1.35-1.33-1.35-2.81-3.18-1.96-2.41-3.76-4.32-6.12-6.38-2.07-2.44-2.07-2.44-1.88-5.75.27-.89.54-1.77.81-2.69 4 1.3 5.68 2.5 7.94 6 7.76 10.39 20.25 18.02 33.06 20 13.42 1.38 25.67.63 38-5 .85-.37 1.69-.74 2.56-1.13 13.35-6.64 22.49-19.18 28.63-32.43 2.18-6.55 2.06-13.29 2.12-20.12.03-1.03.06-2.06.09-3.11.12-14.74-6.48-26.41-16.21-37.04-2.11-2.2-2.11-2.2-4.46-3.83-.57-.44-1.14-.88-1.73-1.34v-2c-.7-.25-1.4-.49-2.12-.75-2.88-1.25-2.88-1.25-5.58-3.16-3.51-2.22-6.98-3.55-10.92-4.77-.98-.32-.98-.32-1.99-.65-4.61-1.48-8.87-2.74-13.72-2.98-1.19-.07-1.19-.07-2.42-.13s-1.23-.06-2.5-.12c-.84-.04-1.68-.09-2.54-.13-2.07-.11-4.14-.21-6.21-.31 8.82-6.99 24.23-4.58 34.19-.56Z" fill="#AC2C33"/><path d="M122 73c2.91 1.71 3.36 2.83 5 6 1 4.58.34 7.36-1.88 11.5-.7.83-1.4 1.65-2.12 2.5h-2v2c-8.03.79-8.03.79-12-2.44-.66-.84-1.32-1.69-2-2.56l-1-1c-.61-5.21-.82-9.57 1.81-14.19 4.71-2.67 8.91-2.91 14.19-1.81Zm40 15c2.81 1.79 4.51 3.02 6 6 .43 3.87.32 5.52-1.88 8.81-2.92 3.01-3.7 3.15-8 3.57-3.23-.07-3.94-.24-6.62-2.32-2.02-4.13-2.31-7.54-1.5-12.06 2.75-4.7 6.95-5.02 12-4Z" fill="#D0746B"/><path d="M133 49c2.62 2.42 3.78 4.02 4.56 7.5-.85 3.78-2.49 5.21-5.56 7.5-3.96.62-6.01.61-9.44-1.5-1.89-3.03-2.2-5.06-2.01-8.59.45-1.91.45-1.91 2.51-4.47 3.89-1.9 5.83-1.71 9.94-.44Z" fill="#D0736B"/><path d="M112 121v2l4 2c.21 3.15.23 5.45-1 8.38-2.7 2.19-4.67 2.02-8.06 1.96C105 135 105 135 102 133c-.77-6.82-.77-6.82 1.62-10.5 2.98-1.88 4.92-1.81 8.38-1.5Z" fill="#D0736A"/><path d="M85.9375 95.6875c3.06.31 3.06.31 4.94 1.44 1.65 2.75 1.52 4.72 1.12 7.87-1.12 1.88-1.12 1.88-3 3-3 .44-3 .44-6 0-1.94-1.62-1.94-1.62-3-4 .29-4.8.68-7.75 5.94-8.31Z" fill="#D07269"/><path d="M86 60c2 2 2 2 2.25 5.5C88 69 88 69 86 71c-3.14.33-5.17.53-7.88-1.19C76.58 67.32 76.5 65.88 77 63c2.76-2.96 5.03-3.52 9-3Z" fill="#D0736A"/><path d="M148 109.6875c.99.1 1.98.21 3 .31 2.14 3.21 2.48 4.28 2 8-3.22 2.15-4.27 2.39-8 2-2-2-2-2-2.25-5 .34-4.13 1.14-4.88 5.25-5.31Z" fill="#D07169"/><path d="M110 35c9.41-.18 9.41-.18 14 1-2 2-2 2-5.04 2.2-1.18-.03-2.37-.05-3.58-.08-1.19-.01-2.38-.03-3.61-.05-.91-.02-1.83-.05-2.77-.07l1-3Z" fill="#BA4C53"/><path d="M58 123h2l1 5-3 1-2-1c.88-3.88.88-3.88 2-5Z" fill="#AC262E"/></svg>