<svg xmlns="http://www.w3.org/2000/svg" viewBox="0 0 334 345"><path d="M210 103c1.16.24 2.33.49 3.52.74 5.59 1.39 10.6 3.95 15.73 6.51.98.47 1.96.93 2.97 1.41 5.57 2.76 8.87 4.8 11.78 10.34l2 2c1.52 3.8 2.24 6.91 2 11 3.44 1.75 3.44 1.75 7.16 1.44.77-.29 1.54-.58 2.34-.88 2.79-1.04 4.48-1.56 7.5-1.56l-1 3h-2c.33.72.66 1.44 1 2.19 1.03 2.89 1.32 4.78 1 7.81l-2 3h-2l2 6c-2.96-.61-4.38-1.25-7-3v-2c-2.65-1.46-3.89-2-7-2-2.07 1.81-2.07 1.81-2.75 3.94-1.79 2.94-4.16 3.72-7.25 5.06v2c-11.12 6.41-22.11 10.98-35.14 7.74-2.98-.83-5.92-1.79-8.86-2.74-15.7-3.76-29.85.8-43.23 8.88C142.66 179.01 138 187.46 134 196v4c-.99.5-.99.5-2 1v4c-1.6 1.86-3.17 3.37-5 5-.64.63-1.29 1.27-1.95 1.92-8.03 7.67-17.75 12.36-28.86 13.46-6.59-.27-11.95-2.25-16.76-6.81-4.44-5.15-7.98-9.68-8.43-16.57-.08-.94-.16-1.88-.24-2.86-.96-22.46 11.05-43.19 25.64-59.35 1.53-1.72 2.98-3.49 4.41-5.29.72-.82 1.45-1.65 2.19-2.5h2v-2h2v-2c2.3-2.12 4.94-3.83 7.5-5.62 1.15-.81 1.15-.81 2.33-1.63C143.3 102.61 178.51 93.77 210 103Z" fill="#C35E21"/><path d="m265 134-1 3h-2c.33.72.66 1.44 1 2.19 1.03 2.89 1.32 4.78 1 7.81-.99 1.49-.99 1.49-2 3h-2l2 6c-2.96-.61-4.38-1.25-7-3v-2c-.87-.43-.87-.43-1.75-.88-2.08-1.04-4.17-2.08-6.25-3.12l1-8c13.18-5 13.18-5 17-5Z" fill="#A64A1A"/><path d="M153 133c2.38 1.56 2.38 1.56 4 4 .42 3.46.7 5.83-1.12 8.88-2.77 1.65-4.65 2.12-7.88 2.12-2.88-2-2.88-2-5-5-.56-3.62-.56-3.62 0-7 2.84-3.39 5.74-3.62 10-3Z" fill="#CB773A"/><path d="m216 125 3 2c.57 4.3.47 6.31-2 9.94-.66.68-1.32 1.36-2 2.06-3.81-.26-5.56-.58-8.38-3.25-1.76-2.99-2.25-4.35-1.62-7.75 2.26-4.1 6.84-3.65 11-3Z" fill="#CB763A"/><path d="M99.5625 179.125c2.44.88 2.44.88 5.44 2.88.36 2.09.36 2.09.31 4.5 0 .79-.01 1.58-.01 2.4-.3 2.1-.3 2.1-2.3 4.1-3.8.35-6.15.52-9.44-1.5-.52-.5-1.03-1-1.56-1.5.29-3.8.54-6.36 2.75-9.5 2.25-1.5 2.25-1.5 4.81-1.38Z" fill="#CB783B"/><path d="M235 146c2 2 2 2 2.31 4.94-.31 3.06-.31 3.06-1.5 4.94-2.49 1.54-3.93 1.62-6.81 1.12-2.65-2.38-2.98-3.67-3.19-7.25.06-.91.13-1.81.19-2.75 3.01-1.51 5.68-1.18 9-1Zm-112-17c.25 3.31.25 3.31 0 7-2.13 2.45-3.43 2.92-6.62 3.38-.79-.13-1.57-.25-2.38-.38-2-3-2-3-1.81-5.5 2.01-6.21 4.78-5.75 10.81-4.5Z" fill="#CB7639"/><path d="M102.4375 209.625c3.56.38 3.56.38 5.5 2.38.35.65.7 1.31 1.06 2-1.15 2.46-2.05 4.04-4 6-2.84.36-4.38.4-6.81-1.19-1.59-2.43-1.55-3.97-1.19-6.81 2-2 2-2 5.44-2.38ZM139 161c3.19.17 4.79.85 7.38 2.75 1.62 2.25 1.62 2.25 1.43 4.94C147 171 147 171 146 172c-3.44-.25-3.44-.25-7-1-2.15-3.22-2.38-4.27-2-8l2-2Zm-59.5625 23.6875c2.56.31 2.56.31 4.44 1.5 1.12 1.81 1.12 1.81 1 4.31-.95 2.7-1.52 3.9-3.88 5.5-2.68.19-2.68.19-5 0-1.5-3.01-1.18-5.68-1-9 2-2 2-2 4.44-2.31Z" fill="#CB773A"/><path d="M164.375 148.6875c2.62.31 2.62.31 4.44 2 1.39 2.71 1.58 4.31 1.18 7.31-.65.66-1.31 1.32-2 2-2.5-.19-2.5-.19-5-1-2.29-3.44-2.26-4.97-2-9 1-1 1-1 3.38-1.31ZM142 107l3 1-3 4h5c.62 2.31.62 2.31 1 5-.99 1.48-.99 1.48-2 3-3.06.25-3.06.25-6 0-1-1-1-1-1.12-4.31.17-5.23.17-5.23 1.12-7.69l2-1Z" fill="#CB7639"/><path d="M199.4375 152.8125c2.56.19 2.56.19 4.56 2.19-.33 3.29-.62 4.62-3 7v4l-7-1 4-1c-.49-.81-.49-.81-1-1.63-1.23-2.94-1.21-5.21-1-8.37 1-1 1-1 3.44-1.19Z" fill="#CB7D47"/><path d="M124 189c4.5-.36 4.5-.36 6.81 1.31C132 192 132 192 132 195c-3.38.62-3.38.62-7 1l-2-2c.38-2.62.38-2.62 1-5Z" fill="#CA7539"/><path d="M97 156c2.62-.19 2.62-.19 5 0 .04 2.33.04 4.67 0 7-1 1-1 1-3.56 1.06-.81-.02-1.61-.04-2.44-.06-.62-2.31-.62-2.31-1-5l2-3Z" fill="#CA7538"/><path d="M189.9375 111.875c3.06.12 3.06.12 5.06 1.12-.33 1.66-.66 3.3-1 5h-7c-.38-1.65-.71-3.32-1-5 1-1 1-1 3.94-1.12ZM187 135c2-.04 4-.04 6 0 1 1 1 1 1.12 3.5C194 141 194 141 193 142c-2 .04-4 .04-6 0v-7Z" fill="#CB7639"/><path d="M170 119c1.68.29 3.34.62 5 1v5c-4.75 1.12-4.75 1.12-7 0 .88-4.88.88-4.88 2-6Z" fill="#CA7538"/><path d="m113 124 1 2h-2c-.25.58-.5 1.16-.75 1.75-2.28 4.11-5.1 6.24-9.25 8.25l-1 2-2-1c1.28-1.71 2.62-3.37 4-5h2v-2h2v-2c1.96-1.39 3.96-2.73 6-4Z" fill="#DEA583"/><path d="M127 157c2.06.44 2.06.44 4 1l1 5c-1.66.38-3.32.71-5 1-1-1-1-1-1.12-3.5.12-2.5.12-2.5 1.12-3.5Z" fill="#CA7437"/><path d="m115 172 5 1 1 4c-2.38.62-2.38.62-5 1l-2-2c.38-2.12.38-2.12 1-4Zm103-17 5 1v4h-6l1-5Z" fill="#CA7336"/><path d="m113 207 5 1v3h-6l1-4Z" fill="#CA7437"/><path d="m142 107 3 1c-2.47 3.47-2.47 3.47-5 7-1.04-3.12-1.09-4.03 0-7l2-1Z" fill="#D38758"/></svg>