<svg xmlns="http://www.w3.org/2000/svg" viewBox="0 0 259 241"><path d="M127 55c.47.49.94.98 1.42 1.48 1.58 1.75 1.58 1.75 4.37 2.34 3.61 1.33 5.39 2.84 8.1 5.54.87.87 1.75 1.74 2.65 2.63.89.91 1.79 1.82 2.71 2.76.91.89 1.82 1.79 2.76 2.71.87.87 1.74 1.75 2.63 2.65 1.18 1.19 1.18 1.19 2.39 2.4 2.19 2.77 3.01 5.12 3.97 8.49.53 1.17 1.06 2.34 1.61 3.54 2.17 5.76 1.79 11.7 1.7 17.77.01 1.16.01 2.32.01 3.52-.04 7.26-.75 14.08-2.32 21.17h-2c-.25.87-.5 1.73-.75 2.62-1.35 3.66-2.96 6.23-5.25 9.38-.48.72-.97 1.43-1.46 2.17-5.28 7.41-12.49 12.9-21.54 14.83-8.91.93-17.83-1.53-25-7-7.64-7.4-11.07-14.55-11.31-25.19.09-7.24 1.17-13.34 6.15-18.84 3.76-3.41 7.88-6.25 12.16-8.97 1.35-1.14 1.35-1.14 1.31-4.19-.37-4.55-1.29-6.4-4.31-9.81-6.55-4.37-14.43-3.26-22-3-.5.99-.5.99-1 2h-9c-.27 1.3-.54 2.6-.81 3.94-2.8 12.37-2.8 12.37-5.94 16.18-3.39 1.32-5.78.76-9.25-.12-2.73-1.73-2.96-2.83-3.75-6-.25-3-.25-3 .75-6-.91-.08-1.81-.16-2.75-.25-3.78-.87-5.07-1.56-7.25-4.75-.56-3.44-.56-3.44 0-7 2.03-2.81 3.58-4.73 7.1-5.4 2.42-.09 4.79-.04 7.21.09 1.26.03 1.26.03 2.54.07 2.05.05 4.1.14 6.15.24.1-.91.21-1.81.31-2.75 1.41-6.65 6.82-10.86 12.25-14.56C95.07 51.28 111.89 48.4 127 55Z" fill="#D08768"/><path d="M127 55c.47.49.94.98 1.42 1.48 1.58 1.75 1.58 1.75 4.37 2.34 3.61 1.33 5.39 2.84 8.1 5.54.87.87 1.75 1.74 2.65 2.63.89.91 1.79 1.82 2.71 2.76.91.89 1.82 1.79 2.76 2.71.87.87 1.74 1.75 2.63 2.65 1.18 1.19 1.18 1.19 2.39 2.4 2.19 2.77 3.01 5.12 3.97 8.49.53 1.17 1.06 2.34 1.61 3.54 2.17 5.76 1.79 11.7 1.7 17.77.01 1.16.01 2.32.01 3.52-.04 7.26-.75 14.08-2.32 21.17h-2c-.25.87-.5 1.73-.75 2.62-1.35 3.66-2.96 6.23-5.25 9.38-.48.72-.97 1.43-1.46 2.17-5.28 7.41-12.49 12.9-21.54 14.83-9.34.98-17.25-1.93-25-7-1.79-1.59-3.38-3.23-5-5l1-2c1.93-.16 3.87-.22 5.81-.25 10.79-.69 19.89-5.85 27.19-13.75 1.05-1.64 2.07-3.29 3-5h2c.1-.78.21-1.57.31-2.38.56-2.91 1.27-5.29 2.25-8.06 3.03-10.03 2.6-20.26-1.85-29.76-2.5-4.09-5.55-7.45-8.92-10.84C127 75 127 75 127 73c-.52-.1-1.03-.21-1.56-.31-4.07-1.15-7.89-2.95-11.69-4.77C104.46 64.81 92.01 66.65 83 70c-2.54 1.35-4.58 2.56-6.57 4.64-2.61 2.7-4.82 4.23-8.65 4.53-5.63-.02-11.19-.55-16.78-1.17v-1h18l1-6c5.46-8.84 16.05-15.52 25.94-18.19 10.08-2 21.52-1.98 31.06 2.19Z" fill="#C4C0BB"/><path d="M53.78125 77.43359375c1.91-.02 3.81-.02 5.72 0 .96-.02 1.92-.04 2.92-.07 2.63.01 5.01.07 7.58.64 1.86 2.45 1.86 2.45 3 5 2.24 1.01 2.24 1.01 4.69 1.31 1.21.21 1.21.21 2.45.42.61.09 1.23.18 1.86.27v1h-7c-.17.81-.17.81-.33 1.65-3.02 14.34-3.02 14.34-6.42 18.47-3.39 1.32-5.78.76-9.25-.12-2.73-1.73-2.96-2.84-3.75-6-.25-3-.25-3 .75-6-.91-.09-1.82-.17-2.75-.25-3.78-.87-5.07-1.57-7.25-4.75-.46-3.63-.59-5.96 1.23-9.19 2.26-2.32 3.35-2.34 6.55-2.38Z" fill="#CF613F"/></svg>