<svg xmlns="http://www.w3.org/2000/svg" viewBox="0 0 304 274"><path d="M152 53c.64.04 1.28.07 1.94.11 11.23.69 19.94 2.8 30.06 7.89 1.1.49 2.19.98 3.32 1.48 5.54 2.54 9.51 4.77 13.13 9.7 1.91 2.24 4.08 3.69 6.49 5.38 5.39 4.16 7.83 9.08 10.53 15.13 1.27 2.75 2.56 4.9 4.34 7.31 2.98 4.48 3.21 9.48 3.73 14.73.3 3.19.3 3.19 1.5 5.65 1.39 3.81 1.17 7.41 1.08 11.43 0 .79-.01 1.58-.02 2.39-.03 1.93-.06 3.87-.1 5.8h-2c-.06.95-.12 1.91-.18 2.89-.09 1.25-.17 2.51-.26 3.8-.12 1.86-.12 1.86-.24 3.76-.71 7.94-.71 7.94-4.32 11.55-.72 2.61-.72 2.61-1 5h-2c-.11.63-.22 1.25-.33 1.9-.16.82-.32 1.63-.48 2.48-.23 1.21-.23 1.21-.46 2.46C216 176 216 176 213 178l-1 3-3 1-1 3-3 1-1 3-3 1-1 3-3 1-1 2h-4v2h-4v2h-4v3h-4v2h-4v2c-1.11.2-2.22.41-3.36.62-1.46.27-2.93.55-4.39.82-.73.13-1.46.27-2.21.41-4.02.73-4.02.73-7.99 1.69-17.95 4.03-37.9-3.65-53.05-12.54-2.27-1.52-2.27-1.52-4-3v-2c-.6-.27-1.2-.54-1.81-.81C97 191 95.59 189.9 94 188v-2c-.56-.21-1.11-.41-1.69-.62-5.62-3.35-8.85-9.61-11.93-15.19-.4-.71-.79-1.43-1.2-2.16-2.67-4.9-4.93-9.57-6.18-15.03-.27-1.17-.55-2.35-.83-3.56-4.06-18.44-2.04-35.67 6.08-52.75.68-1.44.68-1.44 1.37-2.91 2.68-5.33 5.52-9.42 9.95-13.43 1.55-1.31 1.55-1.31 2.43-3.35h2l2-4h2c.38-.92.38-.92.77-1.86C101 67.25 105.11 65.98 109 64c1.19-.66 2.37-1.33 3.55-1.99C124.9 55.23 137.81 51.9 152 53Z" fill="#C24533"/><path d="M143 98c.15 1.01.15 1.01.31 2.05.83 3.24 1.61 5.3 3.69 7.95 2.71.96 5.02 1.61 7.81 2.12 6.23 1.18 10.15 2.19 13.99 7.61 2.1 3.99 3.37 7.85 4.2 12.27.24 1 .24 1 .49 2.03.53 3.84-.17 5.53-2.51 8.7-1.62 1.89-3.29 3.75-5.01 5.56-2.34 3.21-2.47 4.82-1.97 8.71 2 2.85 4.95 4.4 8 6 6.38.98 12.64.67 18.25-2.68 6.38-4.81 9.6-10.43 10.75-18.32.24-3.19.34-6.37.38-9.56.01-.79.02-1.58.04-2.4-.04-5.1-.91-9.27-2.74-14.02-1.05-3.11-1.07-5.79-.68-9.02 1-1.94 1-1.94 3-3 5.5-.61 5.5-.61 8 0 5.38 4.3 6.97 10.4 8 17 1.24 14.27.83 29.14-6 42 .93-.06 1.86-.12 2.81-.19 3.19.19 3.19.19 5.07 1.5C220 164 220 164 220 167h-2c-.11.63-.22 1.25-.33 1.9-.16.82-.32 1.63-.48 2.48-.23 1.21-.23 1.21-.46 2.46C216 176 216 176 213 178l-1 3-3 1c-.5 1.49-.5 1.49-1 3-1.49.5-1.49.5-3 1-.5 1.49-.5 1.49-1 3l-8 1c-2-3-2-3-2-6-.94.69-.94.69-1.91 1.39-16.77 12.02-34.88 18.02-55.63 15.11-19.77-4.18-35.51-15.69-46.46-32.5-.49-.59-.98-1.19-1.49-1.8-9.81-14.33-9.34-34.75-6.51-51.2 1.69-3.12 1.69-3.12 4-5 3.78-.72 5.4-.37 8.67 1.65C97 114 97 114 97.47 116.86c-.06 1.09-.13 2.19-.19 3.31-.05 1.22-.1 2.43-.15 3.68-.09 1.93-.09 1.93-.19 3.9-.41 16.02 1.71 28.18 13.06 40.25.57.66 1.13 1.31 1.72 1.99 4.77 5.24 9.12 7.56 16.17 8.32 6.46.26 12-.08 17.11-4.31 3.65-3.99 6.33-7.92 6.56-13.44-.18-1.17-.37-2.35-.56-3.56-3.29-2.19-5.01-2.37-8.88-2.81-3.85-.62-5.82-.98-9.06-3.25-5.14-7.33-8.66-13.99-8.7-23.08 1.1-4.94 4.49-8.31 7.77-12 2.19-2.74 2.19-2.74 1.71-6.09-.73-2.7-.73-2.7-1.84-4.77-.04-2-.04-4 0-6 3.77-2.56 6.67-1.83 11-1Z" fill="#D0634B"/><path d="M132.13671875 105.3203125c1.86 1.68 1.86 1.68 2.91 4.5-.06 4.32-1.65 5.73-4.48 8.93-2.96 3.61-5.24 6.56-5.38 11.37.76 7.45 3.97 15.19 8.81 20.88 4.33 2.06 9.13 2.64 13.83 3.44 2.17.56 2.17.56 4.17 2.56.9 6.39-.5 9.84-4.27 15.02-3.62 4.16-7.75 6.75-13.36 7.18-9.24.14-14.69-.48-21.58-6.89-5.03-4.91-8.93-9.87-11.79-16.31-.46-.87-.92-1.74-1.4-2.64-3.49-7.38-4.09-14.02-4.16-22.11-.01-.97-.03-1.94-.04-2.94.1-7.58 1.79-13.54 6.35-19.65.56-.53 1.12-1.05 1.69-1.6.56-.54 1.11-1.09 1.68-1.65 8.16-6.12 18.46-4.27 27.02-.09Z" fill="#B92E1E"/><path d="M143 98c.1.68.21 1.35.31 2.05.83 3.24 1.61 5.3 3.69 7.95 2.71.96 5.02 1.61 7.81 2.12 6.23 1.18 10.15 2.19 13.99 7.61 2.1 3.99 3.37 7.85 4.2 12.27.24 1 .24 1 .49 2.03.32 2.34.26 3.71-.49 5.97-2.18 2.85-4.54 5.49-6.93 8.17-3.02 4.12-3.34 7.83-3.07 12.83h2c.22 2.76.32 4.46-1.12 6.88-1.88 1.12-1.88 1.12-4.94.93C156 166 156 166 154 164c-.47-1.16-.95-2.31-1.44-3.5-1.27-3.69-1.27-3.69-4.56-5.5-1.95-.33-3.91-.59-5.88-.81-3.85-.62-5.82-.98-9.06-3.25-5.14-7.33-8.66-13.99-8.7-23.08 1.1-4.94 4.49-8.31 7.77-12 2.19-2.74 2.19-2.74 1.71-6.09-.73-2.7-.73-2.7-1.84-4.77-.04-2-.04-4 0-6 3.77-2.56 6.67-1.83 11-1Zm-54.0625 11.4375c3.81.7 5.35 1.81 8.06 4.56.52 2.99.52 2.99.39 6.46-.05 1.88-.05 1.88-.09 3.81-.06 1.32-.12 2.63-.17 3.98-.49 11.72-.49 11.72 2.87 22.75.47 4.01.63 6.03-1.56 9.44-3.38 2.17-5.5 2.13-9.44 1.56-5.19-4.3-6.74-9.53-8-16-1.96-25.52-1.96-25.52 2.69-34.12 2.31-1.88 2.31-1.88 5.25-2.44ZM209 102c5.37 4.3 6.99 10.41 8 17 .29 3.73.37 7.44.38 11.19v2.77c-.1 6.01-.34 12.33-2.38 18.04-2.97 1.98-3.66 2.29-7 2.31-.68.02-1.36.04-2.06.05-2.62-.49-3.35-1.22-4.94-3.36-.29-2.86-.29-2.86-.19-6.32.04-1.89.04-1.89.07-3.81l.24-7.92c.12-6.51.11-12.06-2.43-18.13-1.14-3.01-1.07-5.66-.69-8.82 2.11-4.08 6.93-3.99 11-3Z" fill="#CB806A"/><path d="M157.4375 123.9375c3.12 3.73 3.09 5.58 2.77 10.27-.07.59-.14 1.18-.21 1.79h-2l-1 3c-3.89 2.57-7.41 3.67-12.03 3.48-3.1-.75-4.84-2.31-6.9-4.7-1.85-3.08-1.7-5.31-1.07-8.78 1.92-3.32 3.34-4.69 6.82-6.31 5.41-1.17 8.68-1.53 13.62 1.25Z" fill="#C5A08C"/><path d="M189 114c2 2 2 2 2.06 4.44-1.06 2.56-1.06 2.56-4.31 4.37-3.26 1.03-5.4 1.67-8.75 1.19l-2-2c0-2.44 0-2.44 1-5 4-2.69 7.21-3.54 12-3Z" fill="#C78858"/><path d="M126.76953125 154.3046875c.74.23 1.47.46 2.23.7l1 5c-1.21 1.18-2.45 2.34-3.69 3.5-.68.64-1.37 1.29-2.07 1.96-2.66 1.82-4.08 1.92-7.24 1.54-1-1-1-1-1.29-3.32.37-3.44 1.39-4.33 3.98-6.56.68-.62 1.37-1.23 2.07-1.87 2.24-1.25 2.24-1.25 5.01-.95Z" fill="#C78859"/><path d="M180 134c2.31-.03 4.62-.05 6.94-.06 1.29-.01 2.57-.03 3.9-.04 3.16.1 3.16.1 4.16 1.1.12 2.5.12 2.5 0 5-1.87 1.87-4.94 1.17-7.44 1.19-1.17.01-2.35.03-3.56.04-3-.23-3-.23-5-2.23.38-2.62.38-2.62 1-5Zm-1.23046875-37.6953125c.74.23 1.47.46 2.23.7.44 2.06.44 2.06 0 5-2.68 3.66-5.31 6.7-9.87 7.5-2.13-.5-2.13-.5-3.13-1.5-.4-3.14-.37-4.51 1.57-7.06.7-.6 1.4-1.2 2.12-1.82.68-.62 1.37-1.23 2.07-1.87 2.24-1.25 2.24-1.25 5.01-.95Z" fill="#C88B5B"/><path d="M120 140c1 1 1 1 1.06 3.56-.02.81-.04 1.61-.06 2.44-1.41.7-2.83 1.39-4.25 2.06-.79.39-1.58.77-2.39 1.16-2.64.87-3.8.77-6.36-.22-1-1-1-1-1.19-3.44C107 143 107 143 109 141c3.69-.82 7.22-1.22 11-1Z" fill="#C88C5C"/><path d="M103 123c2.12-.05 4.25-.09 6.38-.12 1.18-.03 2.36-.05 3.58-.08 3.04.2 3.04.2 5.04 2.2-.38 2.63-.38 2.63-1 5-2.12.05-4.25.09-6.38.12-1.77.04-1.77.04-3.58.08C104 130 104 130 102 128c.38-2.62.38-2.62 1-5Z" fill="#C88C5B"/><path d="M177 147c4.51.39 7.38 2.39 11 5l-1 5c-2.06.81-2.06.81-5 1-2.55-1.41-4.77-3.14-7-5 .88-4.88.88-4.88 2-6Zm-41 15 5 1c.95 2.6 1.3 4.31.18 6.89-1.01 1.74-2.09 3.43-3.18 5.11-1.67.04-3.33.04-5 0l-1-1c.37-4.79 1.25-8.05 4-12Z" fill="#C78758"/><path d="M111 106c4.51.39 7.38 2.39 11 5l-1 5c-8.13-.78-8.13-.78-11-4-.31-2.62-.31-2.62 0-5l1-1Z" fill="#C88C5B"/><path d="M159 89c1.67-.04 3.33-.04 5 0l1 1c-.6 7.39-.6 7.39-3 11-2.62.19-2.62.19-5 0-1.64-4.93-.19-7.54 2-12Z" fill="#C88B5B"/><path d="m225 124 2 1v9h-9v-9c1.45.03 1.45.03 2.94.06 2.93.3 2.93.3 4.06-1.06Z" fill="#B72B1D"/><path d="m96 73 2 1c-2.83 4.67-5.68 7.66-10 11l-2-1c.95-1.17 1.91-2.34 2.88-3.5.8-.97.8-.97 1.61-1.97.5-.5 1-1.01 1.51-1.53h2l2-4Z" fill="#D88E87"/><path d="M79 96c.98 3.06 1.08 4.96 0 8-.99 1.48-.99 1.48-2 3h-2l1.44-4.38c.26-.81.53-1.62.81-2.46C78 98 78 98 79 96Z" fill="#D37D75"/></svg>